<?xml version="1.0" encoding="UTF-8"?>
<svg width="1322.8" height="1322.8" version="1.1" viewBox="0 0 1322.8 1322.8" xmlns="http://www.w3.org/2000/svg">
 <defs>
  <clipPath id="clipPath4920">
   <rect transform="scale(1,-1)" x=".89605" y="-992.97" width="992.08" height="992.08" fill="#f00" stroke="#ff1600" stroke-width="1.7921"/>
  </clipPath>
  <clipPath id="clipPath4926">
   <rect transform="scale(1,-1)" x=".89605" y="-992.97" width="992.08" height="992.08" fill="#f00" stroke="#ff1600" stroke-width="1.7921"/>
  </clipPath>
  <clipPath id="clipPath4932">
   <rect transform="scale(1,-1)" x=".89605" y="-992.97" width="992.08" height="992.08" fill="#f00" stroke="#ff1600" stroke-width="1.7921"/>
  </clipPath>
  <clipPath id="clipPath4938">
   <rect transform="scale(1,-1)" x=".89605" y="-992.97" width="992.08" height="992.08" fill="#f00" stroke="#ff1600" stroke-width="1.7921"/>
  </clipPath>
  <clipPath id="clipPath4944">
   <rect transform="scale(1,-1)" x=".89605" y="-992.97" width="992.08" height="992.08" fill="#f00" stroke="#ff1600" stroke-width="1.7921"/>
  </clipPath>
  <clipPath id="clipPath4950">
   <rect transform="scale(1,-1)" x=".89605" y="-992.97" width="992.08" height="992.08" fill="#f00" stroke="#ff1600" stroke-width="1.7921"/>
  </clipPath>
  <clipPath id="clipPath4956">
   <rect transform="scale(1,-1)" x=".89605" y="-992.97" width="992.08" height="992.08" fill="#f00" stroke="#ff1600" stroke-width="1.7921"/>
  </clipPath>
  <clipPath id="clipPath4962">
   <rect transform="scale(1,-1)" x=".89605" y="-992.97" width="992.08" height="992.08" fill="#f00" stroke="#ff1600" stroke-width="1.7921"/>
  </clipPath>
  <clipPath id="clipPath4968">
   <rect transform="scale(1,-1)" x=".89605" y="-992.97" width="992.08" height="992.08" fill="#f00" stroke="#ff1600" stroke-width="1.7921"/>
  </clipPath>
  <clipPath id="clipPath4974">
   <rect transform="scale(1,-1)" x=".89605" y="-992.97" width="992.08" height="992.08" fill="#f00" stroke="#ff1600" stroke-width="1.7921"/>
  </clipPath>
 </defs>
 <g transform="matrix(1.3333 0 0 -1.3333 -1.1947 1324)">
  <g fill="#fff">
   <path d="m0.012109 519.25c11.55 255.32 216.22 461.17 471.06 474.6 6.528 0.344 12.032-4.826 12.032-11.363 0-6.029-4.708-11.032-10.729-11.334-237.28-11.902-426.66-208.68-426.66-448.86 0-1.173 0.0063-2.345 0.018-3.515 0.0621-6.323-5.0246-11.479-11.347-11.479h-23.008c-6.5047 0-11.661 5.452-11.367 11.95" clip-path="url(#clipPath4974)"/>
   <path d="m50.411 457.39c29.917-205.92 199.97-367.04 409.99-383.18 12.815-0.9848 22.703-11.677 22.703-24.53v-25.031c0-14.353-12.234-25.745-26.539-24.574-240.74 19.711-433.52 211.35-455.05 451.57-1.2871 14.366 10.135 26.716 24.559 26.716 12.19 0 22.585-8.914 24.338-20.978" clip-path="url(#clipPath4968)"/>
   <path d="m995.32 519.25c-11.55 255.32-216.22 461.17-471.06 474.6-6.528 0.344-12.031-4.826-12.031-11.363 0-6.029 4.708-11.032 10.729-11.334 237.28-11.902 426.66-208.68 426.66-448.86 0-1.173-6e-3 -2.345-0.017-3.515-0.063-6.323 5.024-11.479 11.347-11.479h23.008c6.505 0 11.661 5.452 11.367 11.95" clip-path="url(#clipPath4962)"/>
   <path d="m944.92 457.39c-29.918-205.92-199.97-367.04-409.99-383.18-12.815-0.9848-22.703-11.677-22.703-24.53v-25.031c0-14.353 12.234-25.745 26.539-24.574 240.74 19.711 433.52 211.35 455.05 451.57 1.287 14.366-10.135 26.716-24.559 26.716-12.19 0-22.585-8.914-24.337-20.978" clip-path="url(#clipPath4956)"/>
   <path d="m694.43 528.4c12.362-48.891-8.295-76.271-53.394-83.009 132.32-58.697 223.94 63.723 48.607 208.82-78.473 64.939-134.09 124.71-141.55 239.44-14.283-64.358-12.549-116.27 31.798-190.87 37.226-62.622 98.259-110.01 114.54-174.39" clip-path="url(#clipPath4950)"/>
   <path d="m733.65 333.77c-6.941-0.288-12.899-3.705-21.09-7.046-10.919 1.898-24.588-8.588-44.165-22.505-16.906-12.017-43.339-33.568-62.624-37.063 1.998 32.325-10.392 53.174-113.71 92.533-67.94 25.881-253.11 86.144-118.99 456.23-284.1-432.11-31.648-517.1 86.058-565.92 30.846-12.793 23.024-30.239-25.056-31.211-91.649-1.853-157.78 52.987-192.67 152.41 20.718-118.64 96.495-206.95 236.9-214.33 141.42-7.438 209.76 97.481 248.39 150.12 8.852 12.061 24 14.782 31.533 3.055 1.669 8.416-6.665 24.466-24.57 23.725" clip-path="url(#clipPath4944)"/>
   <path d="m658.42 548.64c-33.109 58.275-121.31 131.79-149.09 172.96-27.818 41.123-63.648 94.778-49.737 213.36-12.158-31.315-23.389-68.035-31.415-105.12-13.198-60.979-17.628-122.97-3.101-163.75 15.592-43.677 38.518-66.043 79.488-108.19 34.991-36.034 5.729-63.613-4.782-68.3-26.247-14.294-61.308-1.2-89.91 32.825-16.906 20.043-53.863 71.308-56.759 134.37-7.913-75.294 10.942-157.35 52.537-201.88 52.589-56.297 178.34-129.81 277.48-102.4 12.709 3.512 28.498 4.246 32.258-3.102 1.799 16.445-13.471 26.479-31.842 22.786-4.218 5.087-17.357 6.241-34.243 11.728-19.941 6.48-42.928 14.498-52.439 25.602-18.665 21.793-3.826 53.464 30.787 56.271 38.515 3.122 69.768 14.201 30.767 82.847" clip-path="url(#clipPath4938)"/>
  </g>
  <g>
   <path d="m1794.4 528.4c12.37-48.891-8.29-76.271-53.39-83.009 132.32-58.697 223.94 63.723 48.61 208.82-78.48 64.939-134.09 124.71-141.55 239.44-14.28-64.358-12.55-116.27 31.8-190.87 37.22-62.622 98.26-110.01 114.53-174.39" clip-path="url(#clipPath4932)" fill="#87181d"/>
   <path d="m1833.6 333.77c-6.95-0.288-12.9-3.705-21.09-7.046-10.92 1.898-24.59-8.588-44.17-22.505-16.9-12.017-43.34-33.568-62.62-37.063 2 32.325-10.39 53.174-113.71 92.533-67.94 25.881-253.11 86.144-118.99 456.23-284.11-432.11-31.65-517.1 86.06-565.92 30.84-12.793 23.02-30.239-25.06-31.211-91.65-1.853-157.78 52.987-192.67 152.41 20.72-118.64 96.49-206.95 236.89-214.33 141.43-7.438 209.76 97.481 248.39 150.12 8.85 12.061 24 14.782 31.54 3.055 1.67 8.416-6.67 24.466-24.57 23.725" clip-path="url(#clipPath4926)" fill="#87181d"/>
   <path d="m1758.4 548.64c-33.1 58.275-121.3 131.79-149.08 172.96-27.82 41.123-63.65 94.778-49.74 213.36-12.16-31.315-23.39-68.035-31.41-105.12-13.2-60.979-17.63-122.97-3.1-163.75 15.59-43.677 38.51-66.043 79.48-108.19 35-36.034 5.73-63.613-4.78-68.3-26.25-14.294-61.31-1.2-89.91 32.825-16.9 20.043-53.86 71.308-56.76 134.37-7.91-75.294 10.94-157.35 52.54-201.88 52.59-56.297 178.34-129.81 277.48-102.4 12.71 3.512 28.49 4.246 32.25-3.102 1.8 16.445-13.47 26.479-31.84 22.786-4.21 5.087-17.35 6.241-34.24 11.728-19.94 6.48-42.93 14.498-52.44 25.602-18.66 21.793-3.83 53.464 30.79 56.271 38.51 3.122 69.77 14.201 30.76 82.847" clip-path="url(#clipPath4920)" fill="#fff"/>
  </g>
 </g>
</svg>
