<?xml version="1.0" encoding="UTF-8" standalone="no"?>
<!-- Created with Inkscape (http://www.inkscape.org/) -->

<svg
   version="1.1"
   id="svg1"
   width="887.44"
   height="220.86667"
   viewBox="0 0 887.44 220.86667"
   sodipodi:docname="NCTR-EN-Horizontal.eps"
   xmlns:inkscape="http://www.inkscape.org/namespaces/inkscape"
   xmlns:sodipodi="http://sodipodi.sourceforge.net/DTD/sodipodi-0.dtd"
   xmlns="http://www.w3.org/2000/svg"
   xmlns:svg="http://www.w3.org/2000/svg">
  <defs
     id="defs1" />
  <sodipodi:namedview
     id="namedview1"
     pagecolor="#ffffff"
     bordercolor="#000000"
     borderopacity="0.25"
     inkscape:showpageshadow="2"
     inkscape:pageopacity="0.0"
     inkscape:pagecheckerboard="0"
     inkscape:deskcolor="#d1d1d1">
    <inkscape:page
       x="0"
       y="0"
       inkscape:label="1"
       id="page1"
       width="887.44"
       height="220.86667"
       margin="0"
       bleed="0" />
  </sodipodi:namedview>
  <g
     id="g1"
     inkscape:groupmode="layer"
     inkscape:label="1">
    <g
       id="group-R5">
      <path
         id="path2"
         d="M 0.0195313,865.434 C 19.2695,1290.97 360.387,1634.06 785.117,1656.43 c 10.883,0.58 20.055,-8.04 20.055,-18.93 v 0 c 0,-10.05 -7.848,-18.39 -17.883,-18.89 -395.465,-19.84 -711.0937,-347.8 -711.0937,-748.102 0,-1.957 0.0078,-3.91 0.0274,-5.86 0.1054,-10.539 -8.3711,-19.132 -18.9102,-19.132 H 18.9648 c -10.8398,0 -19.43355,9.086 -18.9452687,19.918"
         style="fill:#d34f1f;fill-opacity:1;fill-rule:nonzero;stroke:none"
         transform="matrix(0.13333333,0,0,-0.13333333,0,220.86667)" />
      <path
         id="path3"
         d="M 84.0195,762.328 C 133.883,419.129 417.301,150.59 767.332,123.699 c 21.359,-1.64 37.84,-19.461 37.84,-40.8787 V 41.1016 C 805.172,17.1797 784.781,-1.80859 760.941,0.140625 359.715,32.9883 38.4023,352.391 2.52344,752.766 0.378906,776.711 19.418,797.293 43.457,797.293 v 0 c 20.3164,0 37.6407,-14.859 40.5625,-34.965"
         style="fill:#c04120;fill-opacity:1;fill-rule:nonzero;stroke:none"
         transform="matrix(0.13333333,0,0,-0.13333333,0,220.86667)" />
      <path
         id="path4"
         d="m 1658.87,865.434 c -19.25,425.536 -360.37,768.626 -785.1,790.996 -10.879,0.58 -20.051,-8.04 -20.051,-18.93 v 0 c 0,-10.05 7.847,-18.39 17.883,-18.89 395.458,-19.84 711.098,-347.8 711.098,-748.102 0,-1.957 -0.01,-3.91 -0.03,-5.86 -0.11,-10.539 8.37,-19.132 18.91,-19.132 h 38.34 c 10.85,0 19.44,9.086 18.95,19.918"
         style="fill:#ef6419;fill-opacity:1;fill-rule:nonzero;stroke:none"
         transform="matrix(0.13333333,0,0,-0.13333333,0,220.86667)" />
      <path
         id="path5"
         d="M 1574.87,762.328 C 1525.01,419.129 1241.59,150.59 891.555,123.699 870.199,122.059 853.719,104.238 853.719,82.8203 V 41.1016 c 0,-23.9219 20.39,-42.91019 44.23,-40.960975 C 1299.18,32.9883 1620.49,352.391 1656.36,752.766 c 2.15,23.945 -16.89,44.527 -40.93,44.527 v 0 c -20.31,0 -37.64,-14.859 -40.56,-34.965"
         style="fill:#982e1e;fill-opacity:1;fill-rule:nonzero;stroke:none"
         transform="matrix(0.13333333,0,0,-0.13333333,0,220.86667)" />
      <path
         id="path6"
         d="m 1157.39,880.672 c 20.6,-81.488 -13.83,-127.121 -88.99,-138.352 220.53,-97.832 373.24,106.207 81.01,348.04 -130.79,108.23 -223.476,207.85 -235.914,399.07 -23.801,-107.27 -20.914,-193.78 53,-318.12 62.044,-104.37 163.764,-183.349 190.894,-290.638"
         style="fill:#f4a00f;fill-opacity:1;fill-rule:nonzero;stroke:none"
         transform="matrix(0.13333333,0,0,-0.13333333,0,220.86667)" />
      <path
         id="path7"
         d="m 1222.74,556.301 c -11.57,-0.481 -21.49,-6.172 -35.15,-11.742 -18.19,3.16 -40.98,-14.321 -73.61,-37.508 -28.17,-20.031 -72.23,-55.949 -104.37,-61.77 3.33,53.867 -17.317,88.617 -189.512,154.219 -113.235,43.129 -421.852,143.57 -198.321,760.38 -473.504,-720.181 -52.746,-861.841 143.43,-943.2 51.41,-21.321 38.375,-50.399 -41.758,-52.02 -152.75,-3.082 -262.972,88.32 -321.121,254.031 34.531,-197.73 160.828,-344.921 394.828,-357.222 235.714,-12.399 349.594,162.461 413.984,250.203 14.75,20.098 40,24.629 52.55,5.09 2.79,14.027 -11.11,40.777 -40.95,39.539"
         style="fill:#c04120;fill-opacity:1;fill-rule:nonzero;stroke:none"
         transform="matrix(0.13333333,0,0,-0.13333333,0,220.86667)" />
      <path
         id="path8"
         d="m 1097.36,914.406 c -55.18,97.124 -202.184,219.644 -248.477,288.264 -46.363,68.54 -106.082,157.97 -82.895,355.61 -20.265,-52.19 -38.984,-113.4 -52.359,-175.21 -21.996,-101.63 -29.383,-204.94 -5.168,-272.92 25.984,-72.79 64.195,-110.08 132.477,-180.314 58.32,-60.059 9.55,-106.023 -7.969,-113.836 -43.742,-23.824 -102.176,-2 -149.848,54.707 -28.18,33.406 -89.773,118.848 -94.598,223.943 -13.187,-125.486 18.235,-262.248 87.559,-336.459 87.648,-93.824 297.234,-216.339 462.468,-170.671 21.18,5.851 47.49,7.082 53.76,-5.168 3,27.41 -22.45,44.128 -53.07,37.976 -7.03,8.481 -28.93,10.402 -57.07,19.543 -33.24,10.801 -71.55,24.164 -87.4,42.672 -31.11,36.32 -6.379,89.105 51.31,93.785 64.19,5.203 116.28,23.668 51.28,138.078"
         style="fill:#ef6419;fill-opacity:1;fill-rule:nonzero;stroke:none"
         transform="matrix(0.13333333,0,0,-0.13333333,0,220.86667)" />
      <path
         id="path9"
         d="m 1930.93,925.707 c 1.9,31.336 4.75,62.672 5.7,87.353 h 8.55 c 6.64,-11.38 11.39,-12.34 24.69,-12.34 h 195.61 c 12.35,0 15.2,2.85 22.79,12.34 h 7.6 c 0.95,-19.935 2.85,-56.017 5.7,-86.404 l -14.24,-0.949 c -4.75,24.688 -10.45,37.031 -17.57,44.156 -8.07,9.024 -23.27,11.867 -52.7,11.867 h -24.69 V 763.324 c 0,-51.285 3.8,-55.082 47.48,-57.926 v -13.296 h -146.24 v 13.296 c 41.78,2.844 45.58,6.641 45.58,57.926 V 981.73 h -16.14 c -40.84,0 -53.18,-5.695 -60.78,-14.246 -5.7,-6.644 -11.4,-18.988 -17.09,-41.777 h -14.25"
         style="fill:#4f4c4c;fill-opacity:1;fill-rule:nonzero;stroke:none"
         transform="matrix(0.13333333,0,0,-0.13333333,0,220.86667)" />
      <path
         id="path10"
         d="m 2261.01,856.859 h 1.42 c 11.4,18.043 30.39,47.954 53.66,47.954 17.09,0 29.43,-14.247 29.43,-27.536 0,-11.875 -8.55,-25.64 -19.47,-29.918 -5.22,-1.894 -10.92,-0.949 -13.77,1.903 -6.64,6.648 -14.24,10.445 -21.83,10.445 -8.08,0 -19,-5.699 -29.44,-26.586 v -95.918 c 0,-26.109 2.84,-28.961 37.5,-31.805 v -13.296 h -117.27 v 13.296 c 28.01,2.844 30.86,5.696 30.86,31.805 V 843.09 c 0,28.961 -0.95,29.91 -30.39,32.762 v 10.918 c 23.27,3.796 54.6,10.445 79.3,18.043 v -47.954"
         style="fill:#4f4c4c;fill-opacity:1;fill-rule:nonzero;stroke:none"
         transform="matrix(0.13333333,0,0,-0.13333333,0,220.86667)" />
      <path
         id="path11"
         d="m 2445.22,765.219 c 0,-35.133 18.51,-45.582 36.56,-45.582 14.24,0 29.91,6.172 45.1,19.468 v 117.754 c 0,17.567 -2.85,19.461 -18.99,22.313 l -13.3,2.375 v 11.394 c 22.32,0.954 60.78,6.172 81.2,8.551 V 740.055 c 0,-19.942 2.84,-23.27 15.66,-23.27 h 18.05 v -13.289 c -25.17,-2.851 -56.5,-11.394 -78.82,-17.098 l -3.8,3.805 v 30.86 c -9.5,-7.118 -18.99,-14.247 -29.44,-20.887 -14.71,-9.024 -26.11,-13.778 -39.41,-13.778 -37.98,0 -61.72,22.793 -61.72,64.106 v 106.355 c 0,17.567 -4.75,19.942 -15.19,21.84 l -12.82,2.848 v 11.394 c 19.47,0.954 55.55,6.172 76.92,8.551 V 765.219"
         style="fill:#4f4c4c;fill-opacity:1;fill-rule:nonzero;stroke:none"
         transform="matrix(0.13333333,0,0,-0.13333333,0,220.86667)" />
      <path
         id="path12"
         d="m 2701.64,959.414 v -61.25 h 48.91 c 5.7,-5.695 3.79,-18.035 -2.85,-21.844 h -46.06 V 759.047 c 0,-37.035 17.56,-43.207 27.06,-43.207 7.6,0 18.52,2.375 28.97,8.074 l 5.7,-11.875 -41.79,-20.887 c -7.12,-3.797 -11.87,-4.754 -15.67,-4.754 -35.61,0 -53.18,17.098 -53.18,56.508 V 876.32 h -32.29 l -2.84,6.649 15.19,15.195 h 19.94 v 28.492 l 42.26,36.559 6.65,-3.801"
         style="fill:#4f4c4c;fill-opacity:1;fill-rule:nonzero;stroke:none"
         transform="matrix(0.13333333,0,0,-0.13333333,0,220.86667)" />
      <path
         id="path13"
         d="m 2851.68,873 c 16.62,15.672 40.36,29.918 64.09,30.863 43.69,0 67.43,-26.586 67.43,-69.797 v -96.863 c 0,-27.058 2.85,-28.961 28.01,-31.805 v -13.296 h -103.98 v 13.296 c 24.22,2.844 27.07,4.747 27.07,31.805 v 85.469 c 0,33.238 -15.2,49.379 -41.79,49.379 -13.77,0 -29.91,-5.699 -40.83,-17.094 V 737.203 c 0,-27.058 2.84,-28.961 25.63,-31.805 v -13.296 h -106.35 v 13.296 c 28.97,2.844 31.81,4.747 31.81,31.805 v 233.61 c 0,27.058 -0.95,28.011 -30.86,29.907 v 12.34 c 19.94,2.85 55.07,10.45 79.77,16.15 V 873"
         style="fill:#4f4c4c;fill-opacity:1;fill-rule:nonzero;stroke:none"
         transform="matrix(0.13333333,0,0,-0.13333333,0,220.86667)" />
      <path
         id="path14"
         d="m 3241.48,879.172 c -13.3,-7.121 -28.97,-20.418 -43.21,-51.277 -13.29,-28.489 -17.1,-62.2 -17.1,-78.34 0,-18.524 3.81,-31.34 12.83,-31.34 7.12,0 27.06,14.242 45.58,34.183 11.39,12.348 28.96,31.813 36.56,47.008 6.17,12.348 17.09,61.25 18.51,79.293 -8.06,2.848 -16.61,5.219 -32.76,5.219 -7.12,0 -14.71,-1.895 -20.41,-4.746 z m 34.18,-103.984 h -0.95 c -19.94,-25.165 -41.78,-47.477 -65.05,-66.469 -8.06,-6.649 -32.28,-22.321 -39.88,-22.321 -10.44,0 -27.53,9.5 -27.53,50.336 0,48.903 22.31,100.657 52.22,127.243 24.69,21.843 62.67,39.886 92.59,39.886 7.59,0 15.66,-1.422 25.16,-3.328 5.7,-1.422 13.29,-2.844 18.52,-2.844 l 2.37,-1.902 c -10.44,-48.43 -22.31,-102.078 -31.33,-156.211 -2.38,-14.715 -3.33,-21.363 0.94,-21.363 4.28,0 21.37,12.348 35.62,22.789 l 5.22,-9.492 c -24.22,-23.739 -63.15,-45.114 -70.27,-45.114 -5.7,0 -14.72,5.227 -9.97,28.016 l 12.34,60.774"
         style="fill:#4f4c4c;fill-opacity:1;fill-rule:nonzero;stroke:none"
         transform="matrix(0.13333333,0,0,-0.13333333,0,220.86667)" />
      <path
         id="path15"
         d="m 3368.72,686.398 c 6.18,25.172 10.45,47.008 17.57,77.872 l 17.57,78.343 c 4.27,18.043 5.7,26.59 1.9,26.59 -5.23,0 -23.74,-11.867 -35.61,-23.738 l -5.23,9.492 c 26.11,26.59 59.83,48.906 70.75,48.906 12.82,0 11.39,-16.617 5.22,-42.734 l -10.45,-43.68 h 1.43 c 39.41,47.485 75.5,71.223 96.38,80.715 9.5,4.277 17.1,5.699 21.85,5.699 7.59,0 23.26,-4.75 11.39,-52.226 -8.54,-34.664 -17.56,-73.121 -26.59,-112.059 -3.32,-14.715 -4.27,-19.941 -0.94,-19.941 4.26,0 22.31,10.926 36.08,21.367 l 5.22,-9.492 c -23.74,-23.739 -63.15,-45.114 -69.8,-45.114 -12.34,0 -14.24,11.403 -8.07,36.567 l 27.54,113.953 c 5.23,21.836 8.08,37.031 -4.75,37.031 -24.69,0 -80.71,-60.777 -95.43,-87.367 -3.33,-9.019 -15.67,-61.242 -18.52,-87.363 l -37.51,-12.821"
         style="fill:#4f4c4c;fill-opacity:1;fill-rule:nonzero;stroke:none"
         transform="matrix(0.13333333,0,0,-0.13333333,0,220.86667)" />
      <path
         id="path16"
         d="m 3698.71,750.023 c 10.91,10.926 22.79,26.59 35.61,44.633 9.97,15.196 21.36,59.352 25.16,83.567 -8.07,4.277 -20.89,7.121 -35.14,7.121 -12.34,0 -23.26,-2.844 -30.39,-7.121 -10.44,-6.172 -23.73,-18.516 -36.08,-43.207 -14.24,-27.536 -21.36,-61.723 -21.36,-86.414 0,-19.942 5.22,-32.286 15.67,-32.286 9.97,0 27.06,13.77 46.53,33.707 z m 42.25,259.717 c 36.09,8.08 71.7,19.47 75.5,19.47 5.7,0 4.74,-8.07 2.37,-19.47 -18.99,-90.213 -37.04,-179.947 -54.13,-270.162 -2.85,-14.715 -3.79,-19.941 0,-19.941 4.28,0 21.37,10.926 35.61,21.367 l 5.23,-9.492 c -23.75,-23.739 -63.16,-45.114 -70.28,-45.114 -5.69,0 -14.71,5.227 -8.07,37.985 l 11.4,55.082 h -1.42 c -20.9,-31.336 -42.74,-52.231 -66.01,-70.274 -7.59,-5.695 -32.28,-22.793 -43.2,-22.793 -12.34,0 -30.39,13.301 -30.39,52.231 0,50.336 23.74,99.707 54.61,127.723 18.98,17.097 57.44,37.511 85.94,37.511 5.22,0 14.24,0 25.16,-1.902 l 14.72,75.5 c 4.27,20.887 3.32,23.739 -11.87,23.739 h -25.17 v 8.54"
         style="fill:#4f4c4c;fill-opacity:1;fill-rule:nonzero;stroke:none"
         transform="matrix(0.13333333,0,0,-0.13333333,0,220.86667)" />
      <path
         id="path17"
         d="m 4062.88,843.09 h 18.03 c 19,0 32.29,2.844 44.64,12.344 18.99,15.195 25.64,37.984 25.64,60.773 0,49.383 -34.19,66.469 -64.58,66.469 -22.79,0 -23.73,-1.895 -23.73,-17.086 z m 35.6,157.63 c 34.66,0 59.35,-3.798 78.35,-16.142 18.51,-12.34 31.33,-32.289 31.33,-60.297 0,-39.886 -24.69,-67.898 -63.14,-82.14 7.59,-13.297 26.11,-46.536 41.3,-67.899 18.05,-26.113 30.39,-43.211 39.41,-52.699 11.4,-11.398 18.99,-18.523 32.76,-21.844 l -1.9,-12.344 -19.94,0.95 c -51.75,3.797 -67.89,17.093 -86.42,43.675 -15.19,21.844 -30.85,52.231 -44.62,76.922 -7.6,13.293 -13.3,18.047 -27.54,18.047 h -15.19 v -63.625 c 0,-51.285 3.79,-55.082 39.88,-57.926 v -13.296 h -133.9 v 13.296 c 37.99,2.844 41.78,6.641 41.78,57.926 V 929.5 c 0,51.281 -3.79,55.078 -39.88,57.93 v 13.29 h 127.72"
         style="fill:#4f4c4c;fill-opacity:1;fill-rule:nonzero;stroke:none"
         transform="matrix(0.13333333,0,0,-0.13333333,0,220.86667)" />
      <path
         id="path18"
         d="m 4376.71,828.367 c 6.65,0 8.54,2.852 8.54,13.297 0,18.992 -14.71,43.68 -35.6,43.68 -19.95,0 -39.89,-22.313 -43.69,-57.926 z m 55.55,-93.058 c -27.07,-39.411 -62.67,-48.911 -75.97,-48.911 -62.2,0 -98.76,44.165 -99.71,99.715 -0.94,59.352 43.21,117.75 105.88,117.75 39.89,0 70.75,-33.715 70.75,-67.898 0,-17.567 -0.95,-18.516 -9.97,-20.418 -6.65,-0.949 -67.9,-5.695 -119.65,-7.598 -0.95,-59.82 36.56,-84.511 72.17,-84.511 16.14,0 31.34,5.699 49.86,19.945 l 6.64,-8.074"
         style="fill:#4f4c4c;fill-opacity:1;fill-rule:nonzero;stroke:none"
         transform="matrix(0.13333333,0,0,-0.13333333,0,220.86667)" />
      <path
         id="path19"
         d="m 4641.17,738.16 c -19.47,-29.918 -49.38,-51.762 -78.82,-51.762 -64.1,0 -100.18,48.434 -100.18,99.239 0,35.133 16.62,68.371 43.68,89.734 29.44,22.793 62.2,28.492 78.82,28.492 12.34,0 33.23,-4.75 43.2,-12.82 3.8,-3.32 5.23,-7.125 5.23,-12.344 0,-13.765 -10.92,-24.215 -17.57,-24.215 -2.37,0 -5.22,0.95 -9.02,4.27 -18.99,16.617 -34.66,20.418 -48.43,20.418 -18.04,0 -47.01,-15.195 -47.01,-69.32 0,-67.422 46.53,-86.414 68.85,-86.414 19.94,0 33.24,5.699 52.7,23.265 l 8.55,-8.543"
         style="fill:#4f4c4c;fill-opacity:1;fill-rule:nonzero;stroke:none"
         transform="matrix(0.13333333,0,0,-0.13333333,0,220.86667)" />
      <path
         id="path20"
         d="m 4811.14,789.91 c 0,58.875 -18.99,96.387 -54.6,96.387 -23.27,0 -45.58,-28.961 -45.58,-80.242 0,-60.297 21.37,-102.082 56.02,-102.082 20.42,0 44.16,18.515 44.16,85.937 z m 56.51,9.024 c 0,-74.551 -54.61,-112.536 -105.41,-112.536 -71.22,0 -107.78,52.707 -107.78,104.461 0,75.969 59.35,113.004 108.73,113.004 62.67,0 104.46,-48.429 104.46,-104.929"
         style="fill:#4f4c4c;fill-opacity:1;fill-rule:nonzero;stroke:none"
         transform="matrix(0.13333333,0,0,-0.13333333,0,220.86667)" />
      <path
         id="path21"
         d="m 4967.35,871.105 c 9.5,5.696 18.99,11.864 27.53,17.567 15.2,9.969 27.07,15.191 41.79,15.191 38.46,0 61.25,-26.586 61.25,-62.675 v -104.93 c 0,-26.113 1.9,-28.016 28.49,-30.86 v -13.296 h -106.36 v 13.296 c 27.07,2.844 28.97,4.747 28.97,30.86 v 91.637 c 0,28.488 -13.77,44.156 -38.47,44.156 -14.24,0 -29.91,-8.074 -43.2,-19.469 V 736.258 c 0,-26.113 2.85,-28.016 26.59,-30.86 v -13.296 h -109.21 v 13.296 c 30.86,2.844 33.71,4.747 33.71,30.86 V 843.09 c 0,28.961 -0.94,29.91 -30.38,32.762 v 10.918 c 23.26,3.796 54.6,10.445 79.29,18.043 v -33.708"
         style="fill:#4f4c4c;fill-opacity:1;fill-rule:nonzero;stroke:none"
         transform="matrix(0.13333333,0,0,-0.13333333,0,220.86667)" />
      <path
         id="path22"
         d="m 5313.95,738.16 c -19.47,-29.918 -49.38,-51.762 -78.82,-51.762 -64.09,0 -100.18,48.434 -100.18,99.239 0,35.133 16.62,68.371 43.68,89.734 29.43,22.793 62.2,28.492 78.82,28.492 12.34,0 33.24,-4.75 43.2,-12.82 3.81,-3.32 5.23,-7.125 5.23,-12.344 0,-13.765 -10.92,-24.215 -17.57,-24.215 -2.37,0 -5.22,0.95 -9.02,4.27 -18.99,16.617 -34.66,20.418 -48.43,20.418 -18.04,0 -47,-15.195 -47,-69.32 0,-67.422 46.52,-86.414 68.84,-86.414 19.94,0 33.24,5.699 52.71,23.265 l 8.54,-8.543"
         style="fill:#4f4c4c;fill-opacity:1;fill-rule:nonzero;stroke:none"
         transform="matrix(0.13333333,0,0,-0.13333333,0,220.86667)" />
      <path
         id="path23"
         d="m 5413.17,984.578 c 0,-16.617 -14.24,-29.906 -30.86,-29.906 -16.14,0 -30.39,13.289 -30.39,29.906 0,18.052 14.25,31.332 30.39,31.332 16.62,0 30.86,-13.28 30.86,-31.332 z m -4.74,-247.375 c 0,-26.109 2.84,-28.961 32.76,-31.805 v -13.296 h -113.96 v 13.296 c 30.39,2.844 32.29,5.696 32.29,31.805 V 843.09 c 0,28.961 -0.95,29.91 -30.39,32.762 v 10.918 c 23.27,3.796 54.6,10.445 79.3,18.043 v -167.61"
         style="fill:#4f4c4c;fill-opacity:1;fill-rule:nonzero;stroke:none"
         transform="matrix(0.13333333,0,0,-0.13333333,0,220.86667)" />
      <path
         id="path24"
         d="m 5534.72,737.203 c 0,-26.109 1.9,-28.961 32.76,-31.805 v -13.296 h -113.95 v 13.296 c 29.44,2.844 32.29,5.696 32.29,31.805 v 232.66 c 0,28.008 -0.95,28.008 -31.82,30.857 v 12.34 c 20.42,2.85 55.56,10.45 80.72,16.15 V 737.203"
         style="fill:#4f4c4c;fill-opacity:1;fill-rule:nonzero;stroke:none"
         transform="matrix(0.13333333,0,0,-0.13333333,0,220.86667)" />
      <path
         id="path25"
         d="m 5670.03,984.578 c 0,-16.617 -14.24,-29.906 -30.86,-29.906 -16.14,0 -30.39,13.289 -30.39,29.906 0,18.052 14.25,31.332 30.39,31.332 16.62,0 30.86,-13.28 30.86,-31.332 z m -4.74,-247.375 c 0,-26.109 2.85,-28.961 32.76,-31.805 v -13.296 h -113.96 v 13.296 c 30.39,2.844 32.29,5.696 32.29,31.805 V 843.09 c 0,28.961 -0.95,29.91 -30.39,32.762 v 10.918 c 23.27,3.796 54.6,10.445 79.3,18.043 v -167.61"
         style="fill:#4f4c4c;fill-opacity:1;fill-rule:nonzero;stroke:none"
         transform="matrix(0.13333333,0,0,-0.13333333,0,220.86667)" />
      <path
         id="path26"
         d="m 5822.43,808.902 c -9.97,-4.746 -28.96,-14.246 -37.5,-18.992 -15.67,-8.543 -22.79,-18.519 -22.79,-35.609 0,-24.692 16.14,-36.086 28.48,-36.086 8.55,0 20.9,5.699 31.81,15.191 z m 83.57,-96.863 -48.9,-25.641 c -21.85,0.957 -31.34,18.047 -33.71,29.918 -19.95,-11.871 -45.58,-29.918 -55.08,-29.918 -35.61,0 -57.93,29.918 -57.93,57.457 0,23.266 10.92,39.407 35.61,49.856 23.27,9.492 61.25,23.262 76.44,32.762 v 12.82 c 0,28.012 -12.34,40.836 -34.18,40.836 -7.6,0 -14.24,-3.809 -18.52,-8.078 -7.59,-6.168 -12.34,-17.094 -16.14,-35.133 -1.42,-6.648 -7.6,-10.445 -15.19,-10.445 -10.45,0 -24.22,9.492 -24.22,20.886 0,6.649 4.75,14.246 14.72,21.844 14.72,10.445 44.15,28.012 79.3,34.66 16.61,0 31.33,-4.273 40.82,-11.394 18.05,-13.77 19.95,-29.438 19.95,-46.059 V 744.801 c 0,-18.992 6.64,-26.586 13.29,-26.586 5.7,0 12.82,2.848 18.99,5.699 l 4.75,-11.875"
         style="fill:#4f4c4c;fill-opacity:1;fill-rule:nonzero;stroke:none"
         transform="matrix(0.13333333,0,0,-0.13333333,0,220.86667)" />
      <path
         id="path27"
         d="m 5986.71,959.414 v -61.25 h 48.91 c 5.7,-5.695 3.8,-18.035 -2.85,-21.844 h -46.06 V 759.047 c 0,-37.035 17.58,-43.207 27.07,-43.207 7.6,0 18.51,2.375 28.96,8.074 l 5.7,-11.875 -41.78,-20.887 c -7.13,-3.797 -11.87,-4.754 -15.67,-4.754 -35.61,0 -53.18,17.098 -53.18,56.508 V 876.32 h -32.28 l -2.85,6.649 15.19,15.195 h 19.94 v 28.492 l 42.26,36.559 6.64,-3.801"
         style="fill:#4f4c4c;fill-opacity:1;fill-rule:nonzero;stroke:none"
         transform="matrix(0.13333333,0,0,-0.13333333,0,220.86667)" />
      <path
         id="path28"
         d="m 6150.44,984.578 c 0,-16.617 -14.24,-29.906 -30.86,-29.906 -16.15,0 -30.38,13.289 -30.38,29.906 0,18.052 14.23,31.332 30.38,31.332 16.62,0 30.86,-13.28 30.86,-31.332 z m -4.75,-247.375 c 0,-26.109 2.85,-28.961 32.77,-31.805 V 692.102 H 6064.5 v 13.296 c 30.39,2.844 32.29,5.696 32.29,31.805 V 843.09 c 0,28.961 -0.95,29.91 -30.38,32.762 v 10.918 c 23.26,3.796 54.59,10.445 79.28,18.043 v -167.61"
         style="fill:#4f4c4c;fill-opacity:1;fill-rule:nonzero;stroke:none"
         transform="matrix(0.13333333,0,0,-0.13333333,0,220.86667)" />
      <path
         id="path29"
         d="m 6347.48,789.91 c 0,58.875 -18.99,96.387 -54.6,96.387 -23.26,0 -45.58,-28.961 -45.58,-80.242 0,-60.297 21.36,-102.082 56.03,-102.082 20.41,0 44.15,18.515 44.15,85.937 z m 56.51,9.024 c 0,-74.551 -54.61,-112.536 -105.41,-112.536 -71.22,0 -107.78,52.707 -107.78,104.461 0,75.969 59.35,113.004 108.73,113.004 62.67,0 104.46,-48.429 104.46,-104.929"
         style="fill:#4f4c4c;fill-opacity:1;fill-rule:nonzero;stroke:none"
         transform="matrix(0.13333333,0,0,-0.13333333,0,220.86667)" />
      <path
         id="path30"
         d="m 6494.19,871.105 c 9.5,5.696 19,11.864 27.54,17.567 15.2,9.969 27.07,15.191 41.78,15.191 38.47,0 61.26,-26.586 61.26,-62.675 v -104.93 c 0,-26.113 1.89,-28.016 28.48,-30.86 V 692.102 H 6546.9 v 13.296 c 27.06,2.844 28.96,4.747 28.96,30.86 v 91.637 c 0,28.488 -13.77,44.156 -38.46,44.156 -14.24,0 -29.91,-8.074 -43.21,-19.469 V 736.258 c 0,-26.113 2.86,-28.016 26.59,-30.86 v -13.296 h -109.2 v 13.296 c 30.86,2.844 33.71,4.747 33.71,30.86 V 843.09 c 0,28.961 -0.95,29.91 -30.38,32.762 v 10.918 c 23.26,3.796 54.59,10.445 79.28,18.043 v -33.708"
         style="fill:#4f4c4c;fill-opacity:1;fill-rule:nonzero;stroke:none"
         transform="matrix(0.13333333,0,0,-0.13333333,0,220.86667)" />
      <path
         id="path31"
         d="m 2010.91,1491.39 195.79,-230.62 h 0.98 V 1354 c 0,55.94 -2.45,83.42 -4.41,98.14 -2.46,17.66 -16.2,23.55 -47.6,25.52 v 13.73 h 119.73 v -13.73 c -24.54,-0.99 -37.3,-7.86 -39.75,-25.52 -1.97,-14.72 -4.42,-42.2 -4.42,-98.14 v -185.48 h -22.57 l -202.16,247.3 h -0.99 v -105.99 c 0,-55.94 2.45,-83.42 4.42,-98.13 2.45,-17.67 16.19,-23.56 47.6,-25.52 v -13.74 h -119.74 v 13.74 c 24.54,0.98 37.3,7.85 39.75,25.52 1.97,14.71 4.42,42.19 4.42,98.13 v 96.19 c 0,56.92 -10.79,68.69 -51.03,71.64 v 13.73 h 79.98"
         style="fill:#4f4c4c;fill-opacity:1;fill-rule:nonzero;stroke:none"
         transform="matrix(0.13333333,0,0,-0.13333333,0,220.86667)" />
      <path
         id="path32"
         d="m 2396.14,1293.15 c -10.31,-4.9 -29.93,-14.72 -38.76,-19.63 -16.2,-8.83 -23.56,-19.13 -23.56,-36.8 0,-25.52 16.68,-37.29 29.44,-37.29 8.83,0 21.59,5.89 32.88,15.7 z m 86.36,-100.1 -50.54,-26.5 c -22.57,0.99 -32.38,18.65 -34.84,30.91 -20.6,-12.26 -47.1,-30.91 -56.92,-30.91 -36.8,0 -59.86,30.91 -59.86,59.37 0,24.05 11.28,40.73 36.8,51.53 24.04,9.82 63.3,24.04 79,33.86 v 13.24 c 0,28.96 -12.76,42.21 -35.33,42.21 -7.85,0 -14.72,-3.93 -19.14,-8.34 -7.85,-6.38 -12.76,-17.67 -16.69,-36.32 -1.46,-6.87 -7.84,-10.79 -15.7,-10.79 -10.79,0 -25.02,9.81 -25.02,21.58 0,6.88 4.91,14.73 15.21,22.58 15.22,10.8 45.63,28.95 81.94,35.82 17.18,0 32.4,-4.41 42.21,-11.77 18.64,-14.23 20.6,-30.43 20.6,-47.6 V 1226.9 c 0,-19.63 6.88,-27.47 13.74,-27.47 5.9,0 13.26,2.94 19.64,5.89 l 4.9,-12.27"
         style="fill:#4f4c4c;fill-opacity:1;fill-rule:nonzero;stroke:none"
         transform="matrix(0.13333333,0,0,-0.13333333,0,220.86667)" />
      <path
         id="path33"
         d="m 2570.84,1448.7 v -63.3 h 50.55 c 5.88,-5.88 3.92,-18.64 -2.95,-22.57 h -47.6 v -121.2 c 0,-38.28 18.16,-44.66 27.98,-44.66 7.84,0 19.13,2.46 29.93,8.35 l 5.88,-12.27 -43.18,-21.59 c -7.36,-3.92 -12.27,-4.91 -16.19,-4.91 -36.8,0 -54.96,17.66 -54.96,58.4 v 137.88 h -33.37 l -2.94,6.87 15.7,15.7 h 20.61 v 29.45 l 43.67,37.78 6.87,-3.93"
         style="fill:#4f4c4c;fill-opacity:1;fill-rule:nonzero;stroke:none"
         transform="matrix(0.13333333,0,0,-0.13333333,0,220.86667)" />
      <path
         id="path34"
         d="m 2740.07,1474.71 c 0,-17.17 -14.72,-30.91 -31.89,-30.91 -16.69,0 -31.42,13.74 -31.42,30.91 0,18.65 14.73,32.38 31.42,32.38 17.17,0 31.89,-13.73 31.89,-32.38 z m -4.91,-255.65 c 0,-26.99 2.95,-29.94 33.86,-32.88 v -13.74 h -117.77 v 13.74 c 31.41,2.94 33.37,5.89 33.37,32.88 v 109.42 c 0,29.94 -0.98,30.91 -31.41,33.86 v 11.29 c 24.05,3.92 56.43,10.79 81.95,18.64 v -173.21"
         style="fill:#4f4c4c;fill-opacity:1;fill-rule:nonzero;stroke:none"
         transform="matrix(0.13333333,0,0,-0.13333333,0,220.86667)" />
      <path
         id="path35"
         d="m 2947.15,1273.52 c 0,60.85 -19.62,99.62 -56.43,99.62 -24.04,0 -47.1,-29.94 -47.1,-82.94 0,-62.31 22.08,-105.49 57.9,-105.49 21.1,0 45.63,19.13 45.63,88.81 z m 58.4,9.32 c 0,-77.03 -56.43,-116.29 -108.93,-116.29 -73.61,0 -111.4,54.47 -111.4,107.95 0,78.52 61.34,116.79 112.38,116.79 64.77,0 107.95,-50.05 107.95,-108.45"
         style="fill:#4f4c4c;fill-opacity:1;fill-rule:nonzero;stroke:none"
         transform="matrix(0.13333333,0,0,-0.13333333,0,220.86667)" />
      <path
         id="path36"
         d="m 3107.14,1357.43 c 9.81,5.89 19.63,12.27 28.47,18.16 15.69,10.3 27.96,15.7 43.18,15.7 39.74,0 63.3,-27.48 63.3,-64.77 v -108.45 c 0,-26.98 1.96,-28.95 29.43,-31.89 v -13.74 h -109.91 v 13.74 c 27.97,2.94 29.93,4.91 29.93,31.89 v 94.71 c 0,29.44 -14.23,45.64 -39.74,45.64 -14.73,0 -30.92,-8.35 -44.66,-20.12 v -120.23 c 0,-26.98 2.95,-28.95 27.48,-31.89 v -13.74 h -112.86 v 13.74 c 31.9,2.94 34.85,4.91 34.85,31.89 v 110.41 c 0,29.94 -0.99,30.91 -31.42,33.86 v 11.29 c 24.05,3.92 56.43,10.79 81.95,18.64 v -34.84"
         style="fill:#4f4c4c;fill-opacity:1;fill-rule:nonzero;stroke:none"
         transform="matrix(0.13333333,0,0,-0.13333333,0,220.86667)" />
      <path
         id="path37"
         d="m 3404.53,1293.15 c -10.31,-4.9 -29.94,-14.72 -38.77,-19.63 -16.2,-8.83 -23.55,-19.13 -23.55,-36.8 0,-25.52 16.68,-37.29 29.44,-37.29 8.83,0 21.58,5.89 32.88,15.7 z m 86.36,-100.1 -50.55,-26.5 c -22.57,0.99 -32.38,18.65 -34.83,30.91 -20.61,-12.26 -47.11,-30.91 -56.93,-30.91 -36.79,0 -59.86,30.91 -59.86,59.37 0,24.05 11.29,40.73 36.81,51.53 24.03,9.82 63.29,24.04 79,33.86 v 13.24 c 0,28.96 -12.76,42.21 -35.33,42.21 -7.86,0 -14.73,-3.93 -19.14,-8.34 -7.85,-6.38 -12.76,-17.67 -16.69,-36.32 -1.46,-6.87 -7.84,-10.79 -15.7,-10.79 -10.8,0 -25.02,9.81 -25.02,21.58 0,6.88 4.9,14.73 15.21,22.58 15.21,10.8 45.63,28.95 81.94,35.82 17.17,0 32.39,-4.41 42.21,-11.77 18.64,-14.23 20.6,-30.43 20.6,-47.6 V 1226.9 c 0,-19.63 6.87,-27.47 13.74,-27.47 5.89,0 13.25,2.94 19.63,5.89 l 4.91,-12.27"
         style="fill:#4f4c4c;fill-opacity:1;fill-rule:nonzero;stroke:none"
         transform="matrix(0.13333333,0,0,-0.13333333,0,220.86667)" />
      <path
         id="path38"
         d="m 3579.23,1219.06 c 0,-26.99 1.96,-29.94 33.86,-32.88 v -13.74 h -117.77 v 13.74 c 30.42,2.94 33.37,5.89 33.37,32.88 v 240.44 c 0,28.95 -0.98,28.95 -32.88,31.89 v 12.76 c 21.1,2.94 57.41,10.8 83.42,16.69 v -301.78"
         style="fill:#4f4c4c;fill-opacity:1;fill-rule:nonzero;stroke:none"
         transform="matrix(0.13333333,0,0,-0.13333333,0,220.86667)" />
      <path
         id="path39"
         d="m 4019.4,1406.5 c -15.71,55.95 -46.62,72.63 -92.26,72.63 -80.47,0 -116.79,-67.23 -116.79,-139.86 0,-91.26 45.16,-154.56 116.79,-154.56 53,0 77.54,27.48 103.05,79.49 l 13.74,-2.94 c -5.89,-23.56 -16.68,-62.81 -24.53,-81.46 -13.74,-3.93 -57.91,-14.72 -92.26,-14.72 -128.56,0 -180.57,83.91 -180.57,161.44 0,103.05 79.49,172.23 189.4,172.23 42.21,0 74.59,-9.81 88.33,-12.75 3.93,-27.48 5.89,-49.07 8.83,-77.53 l -13.73,-1.97"
         style="fill:#4f4c4c;fill-opacity:1;fill-rule:nonzero;stroke:none"
         transform="matrix(0.13333333,0,0,-0.13333333,0,220.86667)" />
      <path
         id="path40"
         d="m 4189.26,1313.27 c 6.87,0 8.83,2.94 8.83,13.73 0,19.64 -15.21,45.15 -36.8,45.15 -20.61,0 -41.22,-23.06 -45.14,-59.86 z m 57.41,-96.18 c -27.97,-40.73 -64.78,-50.54 -78.51,-50.54 -64.28,0 -102.07,45.64 -103.04,103.05 -0.98,61.33 44.65,121.69 109.42,121.69 41.22,0 73.11,-34.84 73.11,-70.17 0,-18.16 -0.98,-19.14 -10.3,-21.1 -6.87,-0.98 -70.17,-5.89 -123.66,-7.85 -0.98,-61.83 37.79,-87.35 74.58,-87.35 16.69,0 32.4,5.89 51.54,20.62 l 6.86,-8.35"
         style="fill:#4f4c4c;fill-opacity:1;fill-rule:nonzero;stroke:none"
         transform="matrix(0.13333333,0,0,-0.13333333,0,220.86667)" />
      <path
         id="path41"
         d="m 4351.25,1357.43 c 9.81,5.89 19.63,12.27 28.45,18.16 15.71,10.3 27.98,15.7 43.19,15.7 39.74,0 63.29,-27.48 63.29,-64.77 v -108.45 c 0,-26.98 1.97,-28.95 29.45,-31.89 v -13.74 h -109.92 v 13.74 c 27.97,2.94 29.94,4.91 29.94,31.89 v 94.71 c 0,29.44 -14.24,45.64 -39.76,45.64 -14.71,0 -30.91,-8.35 -44.64,-20.12 v -120.23 c 0,-26.98 2.94,-28.95 27.47,-31.89 v -13.74 h -112.86 v 13.74 c 31.9,2.94 34.84,4.91 34.84,31.89 v 110.41 c 0,29.94 -0.98,30.91 -31.4,33.86 v 11.29 c 24.04,3.92 56.43,10.79 81.95,18.64 v -34.84"
         style="fill:#4f4c4c;fill-opacity:1;fill-rule:nonzero;stroke:none"
         transform="matrix(0.13333333,0,0,-0.13333333,0,220.86667)" />
      <path
         id="path42"
         d="m 4607.42,1448.7 v -63.3 h 50.53 c 5.9,-5.88 3.93,-18.64 -2.95,-22.57 h -47.58 v -121.2 c 0,-38.28 18.15,-44.66 27.96,-44.66 7.85,0 19.14,2.46 29.93,8.35 l 5.89,-12.27 -43.18,-21.59 c -7.36,-3.92 -12.27,-4.91 -16.19,-4.91 -36.81,0 -54.96,17.66 -54.96,58.4 v 137.88 h -33.37 l -2.94,6.87 15.7,15.7 h 20.61 v 29.45 l 43.67,37.78 6.88,-3.93"
         style="fill:#4f4c4c;fill-opacity:1;fill-rule:nonzero;stroke:none"
         transform="matrix(0.13333333,0,0,-0.13333333,0,220.86667)" />
      <path
         id="path43"
         d="m 4771.73,1342.71 h 1.47 c 11.78,18.65 31.4,49.56 55.45,49.56 17.66,0 30.42,-14.72 30.42,-28.46 0,-12.26 -8.83,-26.5 -20.12,-30.92 -5.39,-1.96 -11.28,-0.97 -14.23,1.97 -6.86,6.87 -14.72,10.8 -22.57,10.8 -8.34,0 -19.63,-5.89 -30.42,-27.48 v -99.12 c 0,-26.99 2.94,-29.94 38.77,-32.88 v -13.74 h -121.21 v 13.74 c 28.95,2.94 31.9,5.89 31.9,32.88 v 109.42 c 0,29.94 -0.98,30.91 -31.41,33.86 v 11.29 c 24.05,3.92 56.43,10.79 81.95,18.64 v -49.56"
         style="fill:#4f4c4c;fill-opacity:1;fill-rule:nonzero;stroke:none"
         transform="matrix(0.13333333,0,0,-0.13333333,0,220.86667)" />
      <path
         id="path44"
         d="m 4989.12,1313.27 c 6.87,0 8.83,2.94 8.83,13.73 0,19.64 -15.21,45.15 -36.8,45.15 -20.61,0 -41.22,-23.06 -45.14,-59.86 z m 57.41,-96.18 c -27.97,-40.73 -64.77,-50.54 -78.51,-50.54 -64.29,0 -102.06,45.64 -103.05,103.05 -0.98,61.33 44.66,121.69 109.43,121.69 41.22,0 73.11,-34.84 73.11,-70.17 0,-18.16 -0.98,-19.14 -10.3,-21.1 -6.88,-0.98 -70.17,-5.89 -123.66,-7.85 -0.98,-61.83 37.79,-87.35 74.59,-87.35 16.68,0 32.38,5.89 51.52,20.62 l 6.87,-8.35"
         style="fill:#4f4c4c;fill-opacity:1;fill-rule:nonzero;stroke:none"
         transform="matrix(0.13333333,0,0,-0.13333333,0,220.86667)" />
      <path
         id="path45"
         d="m 5219.77,1379.52 c 6.88,39.74 19.63,77.04 38.77,100.1 20.61,24.53 50.54,41.22 79,41.22 16.68,0 29.93,-10.8 29.44,-20.61 0,-6.87 -5.89,-14.73 -9.82,-18.16 -4.89,-3.92 -10.3,-3.92 -13.74,-0.49 -10.79,10.3 -23.05,16.19 -37.77,16.19 -21.1,0 -33.37,-27.48 -48.09,-118.25 h 57.9 l -10.8,-12.76 -50.05,-4.91 c -8.34,-53.98 -12.26,-74.58 -15.7,-95.2 -19.14,-110.89 -41.71,-158.49 -58.4,-179.1 -21.09,-26 -44.65,-33.86 -53.97,-33.86 -8.34,0 -21.1,4.91 -21.1,14.72 0,5.4 4.42,12.27 8.34,16.69 2.95,2.94 7.86,6.38 13.74,3.43 6.38,-2.94 15.7,-7.36 21.6,-7.36 4.41,0 9.32,1.47 12.26,4.42 9.32,7.85 20.61,40.23 33.86,132 9.32,61.82 15.21,100.1 21.59,144.26 h -40.73 l -1.47,4.91 13.25,12.76 h 31.89"
         style="fill:#4f4c4c;fill-opacity:1;fill-rule:nonzero;stroke:none"
         transform="matrix(0.13333333,0,0,-0.13333333,0,220.86667)" />
      <path
         id="path46"
         d="m 5379.26,1184.71 c 4.9,0 11.28,1.96 15.21,3.43 20.61,6.87 53.97,64.77 52.99,128.56 0,37.79 -14.23,56.44 -38.76,56.44 -4.91,0 -11.78,-1.96 -16.19,-3.93 -15.21,-6.38 -52.02,-45.64 -52.02,-118.26 0,-36.81 11.29,-66.24 38.77,-66.24 z m 107.95,138.37 c 0,-43.67 -19.14,-94.21 -51.52,-123.65 -20.61,-18.65 -51.53,-32.88 -73.11,-32.88 -45.64,0 -61.83,38.27 -61.83,72.62 0,68.7 36.79,114.34 70.65,134.46 20.12,11.77 40.24,17.66 53,17.66 41.22,0 62.81,-27.48 62.81,-68.21"
         style="fill:#4f4c4c;fill-opacity:1;fill-rule:nonzero;stroke:none"
         transform="matrix(0.13333333,0,0,-0.13333333,0,220.86667)" />
      <path
         id="path47"
         d="m 5590.27,1347.13 -6.38,-29.93 h 0.99 c 24.04,44.65 54.95,74.09 67.71,74.09 10.8,0 19.14,-5.4 23.07,-12.27 2.94,-4.9 2.94,-11.77 0,-17.17 -2.95,-5.89 -7.36,-11.29 -12.27,-14.72 -4.91,-2.95 -9.82,-3.43 -13.74,0 -4.91,3.92 -11.28,5.89 -16.2,5.89 -4.9,0 -12.75,-2.95 -26,-20.61 -12.76,-17.18 -21.1,-34.84 -27.48,-53.49 -10.31,-48.08 -17.66,-80.47 -19.14,-99.12 l -39.74,-13.25 c 6.37,25.52 11.77,51.52 17.17,77.53 l 16.19,77.04 c 5.4,25.52 6.38,34.35 2.46,34.35 -5.4,0 -26.01,-13.74 -37.3,-24.54 l -5.39,9.82 c 26,27.48 58.39,50.54 70.66,50.54 11.28,0 10.79,-17.17 5.39,-44.16"
         style="fill:#4f4c4c;fill-opacity:1;fill-rule:nonzero;stroke:none"
         transform="matrix(0.13333333,0,0,-0.13333333,0,220.86667)" />
      <path
         id="path48"
         d="M 1928.35,480.879 H 6655.83"
         style="fill:none;stroke:#231f20;stroke-width:10.7704;stroke-linecap:butt;stroke-linejoin:miter;stroke-miterlimit:10;stroke-dasharray:none;stroke-opacity:1"
         transform="matrix(0.13333333,0,0,-0.13333333,0,220.86667)" />
      <path
         id="path49"
         d="m 1993.66,293.641 v -5.461 c -19.01,-1.43 -20.91,-3.09 -20.91,-28.989 v -49.66 c 0,-20.203 2.61,-35.41 9.98,-46.101 7.37,-10.461 18.3,-16.399 34.21,-16.399 14.98,0 27.33,6.418 34.94,17.821 7.84,11.878 10.69,32.796 10.69,52.75 v 12.839 c 0,24.95 -0.95,38.02 -1.9,45.379 -1.19,8.321 -7.61,11.649 -23.29,12.36 v 5.461 h 57.03 v -5.461 c -13.07,-0.481 -19.25,-4.039 -20.43,-12.36 -0.95,-7.359 -1.91,-20.429 -1.91,-45.379 V 214.52 c 0,-27.571 -4.27,-47.051 -18.05,-61.782 -10.22,-10.929 -27.33,-17.109 -43.97,-17.109 -13.06,0 -28.03,3.082 -38.96,12.109 -12.6,10.223 -18.3,26.383 -18.3,53.473 v 57.98 c 0,25.899 -1.9,27.559 -21.86,28.989 v 5.461 h 62.73"
         style="fill:#231f20;fill-opacity:1;fill-rule:nonzero;stroke:none"
         transform="matrix(0.13333333,0,0,-0.13333333,0,220.86667)" />
      <path
         id="path50"
         d="m 2291.16,137.531 h -6.18 L 2181.86,262.75 h -0.48 v -60.59 c 0,-24.949 0.95,-37.781 1.91,-45.148 1.18,-8.313 7.59,-11.641 23.28,-12.352 v -5.469 h -57.03 v 5.469 c 13.07,0.469 19.24,4.039 20.43,12.352 0.96,7.367 1.91,20.199 1.91,45.148 v 51.57 c 0,17.098 -0.24,20.899 -4.52,26.372 -4.51,5.699 -10.93,7.367 -20.91,8.078 v 5.461 h 34.69 l 100.04,-119.762 h 0.48 v 56.793 c 0,24.949 -0.96,37.789 -1.9,45.148 -1.19,8.321 -7.61,11.649 -23.29,12.36 v 5.461 h 57.03 v -5.461 c -13.07,-0.481 -19.25,-4.039 -20.44,-12.36 -0.95,-7.359 -1.9,-20.199 -1.9,-45.148 v -93.141"
         style="fill:#231f20;fill-opacity:1;fill-rule:nonzero;stroke:none"
         transform="matrix(0.13333333,0,0,-0.13333333,0,220.86667)" />
      <path
         id="path51"
         d="m 2411.87,173.648 c 0,-25.91 1.9,-27.566 21.39,-28.988 v -5.469 h -62.74 v 5.469 c 19.49,1.422 21.4,3.078 21.4,28.988 v 85.543 c 0,25.899 -1.91,27.559 -21.4,28.989 v 5.461 h 62.74 v -5.461 c -19.49,-1.43 -21.39,-3.09 -21.39,-28.989 v -85.543"
         style="fill:#231f20;fill-opacity:1;fill-rule:nonzero;stroke:none"
         transform="matrix(0.13333333,0,0,-0.13333333,0,220.86667)" />
      <path
         id="path52"
         d="m 2560.15,137.77 c -16.16,42.531 -38.98,101.218 -49.19,127.601 -7.6,19.719 -10.93,21.379 -25.18,22.809 v 5.461 h 57.73 v -5.461 l -7.6,-0.95 c -8.79,-1.191 -10.21,-3.57 -7.6,-10.941 6.18,-17.578 24.47,-64.391 41.82,-108.82 12.36,32.793 32.79,86.73 38.01,102.179 4.52,13.543 2.15,16.633 -8.55,17.821 l -7.13,0.711 v 5.461 h 52.04 v -5.461 c -15.92,-1.668 -18.06,-3.328 -26.85,-24.239 -3.09,-7.363 -32.55,-77.941 -50.37,-126.171 h -7.13"
         style="fill:#231f20;fill-opacity:1;fill-rule:nonzero;stroke:none"
         transform="matrix(0.13333333,0,0,-0.13333333,0,220.86667)" />
      <path
         id="path53"
         d="m 2708.89,259.191 c 0,25.899 -1.89,27.559 -20.9,28.989 v 5.461 h 104.07 c 0.24,-4.032 1.42,-21.379 2.61,-34.692 l -5.93,-0.711 c -2.38,11.883 -5,18.051 -8.55,21.864 -3.81,4.039 -11.66,5.699 -26.14,5.699 h -18.06 c -6.66,0 -7.13,-0.481 -7.13,-7.371 v -54.168 h 24 c 20.43,0 21.14,1.418 23.52,19.008 h 5.94 v -47.051 h -5.94 c -1.19,8.793 -1.9,13.543 -4.99,16.16 -3.09,2.609 -8.32,3.082 -18.53,3.082 h -24 v -42.063 c 0,-13.539 1.43,-20.66 5.94,-23.519 4.51,-2.848 13.06,-2.848 24.24,-2.848 13.54,0 24.7,1.188 29.93,6.891 4.04,4.277 7.85,12.359 11.41,23.289 l 5.95,-0.711 c -1.19,-6.66 -6.43,-30.891 -8.33,-37.309 h -112.39 v 5.469 c 21.39,1.422 23.28,3.078 23.28,28.988 v 85.543"
         style="fill:#231f20;fill-opacity:1;fill-rule:nonzero;stroke:none"
         transform="matrix(0.13333333,0,0,-0.13333333,0,220.86667)" />
      <path
         id="path54"
         d="m 2904.45,214.039 h 13.79 c 9.74,0 17.34,1.191 23.76,6.422 10.22,8.07 13.79,19.719 13.79,31.359 0,24.95 -18.06,34.93 -35.89,34.93 -8.08,0 -11.4,-0.469 -13.31,-1.18 -1.42,-0.48 -2.14,-1.672 -2.14,-6.422 z m 0,-40.391 c 0,-25.91 1.91,-27.566 21.39,-28.988 v -5.469 h -63.21 v 5.469 c 19.97,1.422 21.86,3.078 21.86,28.988 v 85.543 c 0,25.899 -1.89,27.559 -20.9,28.989 v 5.461 h 60.36 c 15.2,0 28.74,-2.141 37.54,-8.071 9.5,-5.949 15.67,-16.64 15.67,-30.422 0,-19.718 -12.11,-33.738 -31.36,-41.578 4.28,-7.129 14.03,-23.531 21.15,-33.992 8.55,-12.59 13.54,-19 19.96,-26.129 4.99,-5.937 9.27,-9.738 17.82,-11.89 l -0.47,-4.508 h -3.34 c -27.32,0.719 -35.64,9.031 -44.66,22.097 -7.37,10.692 -17.35,28.282 -24,39.454 -3.8,6.168 -7.61,8.546 -14.97,8.546 h -12.84 v -33.5"
         style="fill:#231f20;fill-opacity:1;fill-rule:nonzero;stroke:none"
         transform="matrix(0.13333333,0,0,-0.13333333,0,220.86667)" />
      <path
         id="path55"
         d="m 3049.88,181.02 c 3.81,-11.18 15.92,-37.551 41.11,-37.551 18.06,0 29.46,12.121 29.46,30.652 0,20.199 -15.44,28.52 -30.65,35.879 -7.84,3.801 -39.92,14.969 -39.92,43.48 0,23.532 17.82,43.731 48.94,43.731 6.66,0 14.74,-1.43 19.73,-3.09 3.09,-0.949 6.41,-2.141 9.03,-2.621 0.95,-8.309 2.38,-17.809 4.28,-32.07 l -5.94,-0.719 c -4.04,14.019 -10.7,30.648 -32.32,30.648 -16.87,0 -25.66,-12.347 -25.66,-26.371 0,-17.578 12.59,-25.429 30.65,-33.5 15.68,-6.886 40.63,-16.629 40.63,-46.097 0,-27.571 -22.57,-47.762 -52.75,-47.762 -8.55,0 -16.64,1.66 -22.57,3.562 -5.94,1.899 -10.21,3.797 -13.07,4.989 -1.9,6.179 -4.52,23.05 -6.89,35.879 l 5.94,0.961"
         style="fill:#231f20;fill-opacity:1;fill-rule:nonzero;stroke:none"
         transform="matrix(0.13333333,0,0,-0.13333333,0,220.86667)" />
      <path
         id="path56"
         d="m 3240.92,173.648 c 0,-25.91 1.91,-27.566 21.4,-28.988 v -5.469 h -62.74 v 5.469 c 19.49,1.422 21.39,3.078 21.39,28.988 v 85.543 c 0,25.899 -1.9,27.559 -21.39,28.989 v 5.461 h 62.74 v -5.461 c -19.49,-1.43 -21.4,-3.09 -21.4,-28.989 v -85.543"
         style="fill:#231f20;fill-opacity:1;fill-rule:nonzero;stroke:none"
         transform="matrix(0.13333333,0,0,-0.13333333,0,220.86667)" />
      <path
         id="path57"
         d="m 3394.67,173.648 c 0,-25.91 1.9,-27.566 25.19,-28.988 v -5.469 h -69.38 v 5.469 c 22.33,1.422 24.23,3.078 24.23,28.988 v 112.153 h -11.17 c -21.15,0 -27.57,-3.082 -31.12,-7.602 -2.62,-3.328 -5.47,-9.98 -8.32,-20.429 h -5.95 c 0.96,14.492 2.38,29.699 2.86,41.808 h 3.33 c 3.56,-5.457 5.93,-5.937 12.35,-5.937 h 97.42 c 6.19,0 7.37,1.429 11.17,5.937 h 3.33 c 0.24,-9.969 1.43,-27.316 2.62,-41.098 l -5.95,-0.71 c -2.38,11.402 -4.98,18.05 -8.55,21.851 -4.05,4.52 -11.41,6.18 -26.14,6.18 h -15.92 V 173.648"
         style="fill:#231f20;fill-opacity:1;fill-rule:nonzero;stroke:none"
         transform="matrix(0.13333333,0,0,-0.13333333,0,220.86667)" />
      <path
         id="path58"
         d="m 3571.21,173.648 c 0,-25.91 1.91,-27.566 24.72,-28.988 v -5.469 h -68.43 v 5.469 c 21.86,1.422 23.76,3.078 23.76,28.988 v 27.082 c 0,4.282 -0.71,6.418 -5.23,14.258 -10.69,18.532 -19.96,35.641 -30.18,53.231 -10.21,17.582 -11.17,18.293 -24.95,19.961 v 5.461 h 57.27 v -5.461 l -10.93,-1.43 c -5.94,-0.949 -7.61,-3.09 -3.57,-10.461 10.7,-19.961 21.63,-39.668 33.27,-59.16 9.98,19.012 20.67,38.492 29.46,57.98 4.05,8.551 2.14,10.93 -6.89,11.879 l -9.5,1.192 v 5.461 h 52.28 v -5.461 c -15.92,-1.43 -17.11,-4.52 -27.09,-20.2 -10.7,-16.628 -19.72,-33.031 -29.95,-52.039 -3.55,-6.41 -4.04,-7.839 -4.04,-12.832 v -29.461"
         style="fill:#231f20;fill-opacity:1;fill-rule:nonzero;stroke:none"
         transform="matrix(0.13333333,0,0,-0.13333333,0,220.86667)" />
      <path
         id="path59"
         d="m 3859.92,289.359 c -28.03,0 -51.79,-23.039 -51.79,-67.718 0,-45.86 23.99,-78.172 58.68,-78.172 28.52,0 51.81,22.101 51.81,66.293 0,51.328 -24.71,79.597 -58.7,79.597 z m 81.75,-70.8 c 0,-49.43 -34.46,-82.93 -79.84,-82.93 -44.92,0 -76.76,34.211 -76.76,79.121 0,39.922 28.05,82.461 81.04,82.461 41.1,0 75.56,-31.84 75.56,-78.652"
         style="fill:#231f20;fill-opacity:1;fill-rule:nonzero;stroke:none"
         transform="matrix(0.13333333,0,0,-0.13333333,0,220.86667)" />
      <path
         id="path60"
         d="m 4009.38,259.191 c 0,25.899 -1.89,27.559 -20.91,28.989 v 5.461 h 103.13 c 0.24,-4.032 1.43,-21.379 2.62,-34.692 l -5.94,-0.711 c -2.38,11.883 -4.99,18.051 -8.56,21.864 -3.8,4.039 -11.64,5.699 -26.14,5.699 h -17.1 c -6.66,0 -7.13,-0.481 -7.13,-7.371 v -56.789 h 25.9 c 20.43,0 21.15,1.429 23.52,19.019 h 5.94 v -46.82 h -5.94 c -2.37,17.59 -3.09,19.019 -23.52,19.019 h -25.9 v -39.211 c 0,-25.91 1.89,-27.566 24.71,-28.988 v -5.469 h -65.59 v 5.469 c 19.02,1.422 20.91,3.078 20.91,28.988 v 85.543"
         style="fill:#231f20;fill-opacity:1;fill-rule:nonzero;stroke:none"
         transform="matrix(0.13333333,0,0,-0.13333333,0,220.86667)" />
      <path
         id="path61"
         d="m 4292.87,293.641 57.5,-122.371 56.55,122.371 h 39.21 v -5.461 c -20.67,-1.668 -22.1,-2.61 -21.39,-28.989 l 1.91,-85.543 c 0.71,-26.617 1.42,-27.328 22.34,-28.988 v -5.469 h -62.74 v 5.469 c 19.97,1.66 20.67,2.371 20.44,28.988 l -0.96,95.75 h -0.94 l -58.22,-127.589 h -5.94 l -54.89,124.273 h -0.48 l -2.37,-66.293 c -0.95,-22.34 -0.95,-35.41 0,-42.777 1.18,-8.793 6.89,-11.16 22.34,-12.352 v -5.469 h -55.85 v 5.469 c 13.31,1.192 18.3,3.559 19.97,12.352 1.42,7.367 2.85,21.629 4.04,45.148 l 2.61,49.899 c 1.66,31.839 0,34.453 -22.34,36.121 v 5.461 h 39.21"
         style="fill:#231f20;fill-opacity:1;fill-rule:nonzero;stroke:none"
         transform="matrix(0.13333333,0,0,-0.13333333,0,220.86667)" />
      <path
         id="path62"
         d="m 4536.66,206.91 h 42.06 l -20.91,58.461 h -0.47 z m 45.39,-62.25 7.6,0.949 c 8.8,0.95 9.75,3.563 7.37,10.93 -1.66,5.699 -8.55,24.231 -15.2,41.34 h -48.24 c -2.38,-6.168 -8.55,-24.707 -11.89,-34.688 -4.51,-13.781 -2.37,-16.871 8.32,-17.82 l 7.13,-0.711 v -5.469 h -50.85 v 5.469 c 15.45,1.66 17.34,3.078 25.66,24.231 l 48.96,126.179 5.46,2.141 16.87,-45.152 c 11.17,-30.168 21.62,-60.348 30.89,-84.59 7.61,-19.957 10.69,-21.617 25.42,-22.809 v -5.469 h -57.5 v 5.469"
         style="fill:#231f20;fill-opacity:1;fill-rule:nonzero;stroke:none"
         transform="matrix(0.13333333,0,0,-0.13333333,0,220.86667)" />
      <path
         id="path63"
         d="m 4823.48,137.531 h -6.19 L 4714.17,262.75 h -0.48 v -60.59 c 0,-24.949 0.95,-37.781 1.91,-45.148 1.18,-8.313 7.59,-11.641 23.28,-12.352 v -5.469 h -57.03 v 5.469 c 13.07,0.469 19.25,4.039 20.44,12.352 0.95,7.367 1.9,20.199 1.9,45.148 v 51.57 c 0,17.098 -0.24,20.899 -4.52,26.372 -4.51,5.699 -10.93,7.367 -20.91,8.078 v 5.461 h 34.69 l 100.04,-119.762 h 0.48 v 56.793 c 0,24.949 -0.96,37.789 -1.9,45.148 -1.19,8.321 -7.61,11.649 -23.29,12.36 v 5.461 h 57.03 v -5.461 c -13.07,-0.481 -19.25,-4.039 -20.44,-12.36 -0.95,-7.359 -1.89,-20.199 -1.89,-45.148 v -93.141"
         style="fill:#231f20;fill-opacity:1;fill-rule:nonzero;stroke:none"
         transform="matrix(0.13333333,0,0,-0.13333333,0,220.86667)" />
      <path
         id="path64"
         d="m 4934.91,173.648 c 0,-25.91 1.91,-27.566 21.39,-28.988 v -5.469 h -62.73 v 5.469 c 19.48,1.422 21.39,3.078 21.39,28.988 v 85.543 c 0,25.899 -1.91,27.559 -21.39,28.989 v 5.461 h 62.73 v -5.461 c -19.48,-1.43 -21.39,-3.09 -21.39,-28.989 v -85.543"
         style="fill:#231f20;fill-opacity:1;fill-rule:nonzero;stroke:none"
         transform="matrix(0.13333333,0,0,-0.13333333,0,220.86667)" />
      <path
         id="path65"
         d="m 5081.77,173.648 c 0,-25.91 1.89,-27.566 25.18,-28.988 v -5.469 h -69.38 v 5.469 c 22.34,1.422 24.23,3.078 24.23,28.988 v 112.153 h -11.17 c -21.14,0 -27.56,-3.082 -31.12,-7.602 -2.61,-3.328 -5.46,-9.98 -8.31,-20.429 h -5.95 c 0.95,14.492 2.38,29.699 2.85,41.808 h 3.33 c 3.57,-5.457 5.94,-5.937 12.36,-5.937 h 97.42 c 6.18,0 7.36,1.429 11.16,5.937 h 3.34 c 0.23,-9.969 1.42,-27.316 2.61,-41.098 l -5.95,-0.71 c -2.37,11.402 -4.98,18.05 -8.55,21.851 -4.04,4.52 -11.4,6.18 -26.14,6.18 h -15.91 V 173.648"
         style="fill:#231f20;fill-opacity:1;fill-rule:nonzero;stroke:none"
         transform="matrix(0.13333333,0,0,-0.13333333,0,220.86667)" />
      <path
         id="path66"
         d="m 5251.42,289.359 c -28.04,0 -51.8,-23.039 -51.8,-67.718 0,-45.86 24,-78.172 58.7,-78.172 28.51,0 51.8,22.101 51.8,66.293 0,51.328 -24.72,79.597 -58.7,79.597 z m 81.75,-70.8 c 0,-49.43 -34.46,-82.93 -79.84,-82.93 -44.91,0 -76.75,34.211 -76.75,79.121 0,39.922 28.04,82.461 81.02,82.461 41.11,0 75.57,-31.84 75.57,-78.652"
         style="fill:#231f20;fill-opacity:1;fill-rule:nonzero;stroke:none"
         transform="matrix(0.13333333,0,0,-0.13333333,0,220.86667)" />
      <path
         id="path67"
         d="m 5418.47,219.5 v -51.801 c 0,-15.918 3.09,-21.379 20.43,-21.14 19.96,0 36.84,9.98 36.84,35.171 0,25.899 -19.01,37.77 -43.49,37.77 z m 0,6.898 h 14.97 c 22.82,0 34.22,10.692 34.22,30.18 0,14.25 -5.94,30.172 -33.99,30.172 -7.83,0 -11.16,-0.711 -13.06,-1.43 -1.42,-0.468 -2.14,-1.422 -2.14,-6.172 z m 23.28,67.243 c 17.11,0 26.86,-2.852 34.7,-8.321 8.08,-5.699 12.35,-14.25 12.35,-26.129 0,-20.91 -19.72,-31.132 -31.12,-33.98 v -0.473 c 21.62,-3.097 41.1,-15.918 41.1,-39.929 0,-16.86 -8.32,-28.75 -22.09,-36.59 -12.12,-6.66 -27.32,-9.028 -45.38,-9.028 h -54.66 v 5.469 c 19.96,1.422 21.86,3.078 21.86,28.988 v 85.543 c -0.23,25.899 -1.66,27.559 -20.44,28.989 v 5.461 h 63.68"
         style="fill:#231f20;fill-opacity:1;fill-rule:nonzero;stroke:none"
         transform="matrix(0.13333333,0,0,-0.13333333,0,220.86667)" />
      <path
         id="path68"
         d="m 5576.26,206.91 h 42.05 l -20.91,58.461 h -0.47 z m 45.38,-62.25 7.6,0.949 c 8.79,0.95 9.74,3.563 7.36,10.93 -1.66,5.699 -8.55,24.231 -15.21,41.34 h -48.23 c -2.37,-6.168 -8.56,-24.707 -11.88,-34.688 -4.51,-13.781 -2.38,-16.871 8.32,-17.82 l 7.13,-0.711 v -5.469 h -50.86 v 5.469 c 15.45,1.66 17.36,3.078 25.67,24.231 l 48.95,126.179 5.46,2.141 16.87,-45.152 c 11.17,-30.168 21.63,-60.348 30.9,-84.59 7.6,-19.957 10.68,-21.617 25.42,-22.809 v -5.469 h -57.5 v 5.469"
         style="fill:#231f20;fill-opacity:1;fill-rule:nonzero;stroke:none"
         transform="matrix(0.13333333,0,0,-0.13333333,0,220.86667)" />
    </g>
  </g>
</svg>
