<?xml version="1.0" encoding="UTF-8" standalone="no"?>
<!-- Created with Inkscape (http://www.inkscape.org/) -->

<svg
   version="1.1"
   id="svg1"
   width="889.56"
   height="217.90668"
   viewBox="0 0 889.56 217.90668"
   sodipodi:docname="NCTR-FR-Horizontal.eps"
   xmlns:inkscape="http://www.inkscape.org/namespaces/inkscape"
   xmlns:sodipodi="http://sodipodi.sourceforge.net/DTD/sodipodi-0.dtd"
   xmlns="http://www.w3.org/2000/svg"
   xmlns:svg="http://www.w3.org/2000/svg">
  <defs
     id="defs1" />
  <sodipodi:namedview
     id="namedview1"
     pagecolor="#ffffff"
     bordercolor="#000000"
     borderopacity="0.25"
     inkscape:showpageshadow="2"
     inkscape:pageopacity="0.0"
     inkscape:pagecheckerboard="0"
     inkscape:deskcolor="#d1d1d1">
    <inkscape:page
       x="0"
       y="0"
       inkscape:label="1"
       id="page1"
       width="889.56"
       height="217.90668"
       margin="0"
       bleed="0" />
  </sodipodi:namedview>
  <g
     id="g1"
     inkscape:groupmode="layer"
     inkscape:label="1">
    <g
       id="group-R5">
      <path
         id="path2"
         d="M 6666.27,470.691 H 1984.16 v 7.52 h 4682.11 z"
         style="fill:none;stroke:#231f20;stroke-width:10.77;stroke-linecap:butt;stroke-linejoin:miter;stroke-miterlimit:10;stroke-dasharray:none;stroke-opacity:1"
         transform="matrix(0.13333333,0,0,-0.13333333,0,217.90667)" />
      <path
         id="path3"
         d="m 2047,289.711 v -5.391 c -18.76,-1.41 -20.63,-3.05 -20.63,-28.601 v -49 c 0,-19.918 2.58,-34.93 9.84,-45.481 7.27,-10.316 18.06,-16.179 33.76,-16.179 14.78,0 26.97,6.332 34.46,17.582 7.74,11.73 10.56,32.359 10.56,52.05 v 12.661 c 0,24.617 -0.94,37.507 -1.88,44.777 -1.17,8.211 -7.5,11.492 -22.97,12.191 v 5.391 h 56.26 v -5.391 c -12.89,-0.468 -18.99,-3.98 -20.16,-12.191 -0.94,-7.27 -1.87,-20.16 -1.87,-44.777 v -15.711 c 0,-27.192 -4.22,-46.411 -17.82,-60.95 -10.09,-10.781 -26.96,-16.882 -43.37,-16.882 -12.9,0 -27.66,3.043 -38.45,11.953 -12.42,10.09 -18.06,26.027 -18.06,52.758 v 57.199 c 0,25.551 -1.87,27.191 -21.56,28.601 v 5.391 H 2047"
         style="fill:#231f20;fill-opacity:1;fill-rule:nonzero;stroke:none"
         transform="matrix(0.13333333,0,0,-0.13333333,0,217.90667)" />
      <path
         id="path4"
         d="m 2340.52,135.691 h -6.09 l -101.75,123.547 h -0.47 v -59.789 c 0,-24.609 0.94,-37.277 1.88,-44.539 1.16,-8.199 7.5,-11.488 22.97,-12.191 v -5.387 h -56.27 v 5.387 c 12.9,0.472 18.99,3.992 20.17,12.191 0.93,7.262 1.87,19.93 1.87,44.539 v 50.883 c 0,16.867 -0.23,20.629 -4.45,26.02 -4.46,5.628 -10.79,7.269 -20.63,7.968 v 5.391 h 34.23 l 98.69,-118.16 h 0.47 v 56.031 c 0,24.617 -0.93,37.277 -1.88,44.547 -1.17,8.211 -7.49,11.492 -22.97,12.191 v 5.391 h 56.27 v -5.391 c -12.9,-0.468 -18.99,-3.98 -20.16,-12.191 -0.94,-7.27 -1.88,-19.93 -1.88,-44.547 v -91.891"
         style="fill:#231f20;fill-opacity:1;fill-rule:nonzero;stroke:none"
         transform="matrix(0.13333333,0,0,-0.13333333,0,217.90667)" />
      <path
         id="path5"
         d="m 2459.62,171.32 c 0,-25.558 1.87,-27.199 21.09,-28.601 v -5.387 h -61.88 v 5.387 c 19.22,1.402 21.1,3.043 21.1,28.601 v 84.399 c 0,25.551 -1.88,27.191 -21.1,28.601 v 5.391 h 61.88 v -5.391 c -19.22,-1.41 -21.09,-3.05 -21.09,-28.601 V 171.32"
         style="fill:#231f20;fill-opacity:1;fill-rule:nonzero;stroke:none"
         transform="matrix(0.13333333,0,0,-0.13333333,0,217.90667)" />
      <path
         id="path6"
         d="m 2605.91,135.922 c -15.94,41.957 -38.45,99.867 -48.52,125.898 -7.51,19.45 -10.79,21.09 -24.86,22.5 v 5.391 h 56.97 v -5.391 l -7.5,-0.941 c -8.67,-1.168 -10.08,-3.508 -7.51,-10.777 6.11,-17.352 24.15,-63.543 41.27,-107.372 12.19,32.34 32.35,85.559 37.51,100.809 4.45,13.352 2.11,16.41 -8.44,17.582 l -7.03,0.699 v 5.391 h 51.33 v -5.391 c -15.7,-1.64 -17.81,-3.281 -26.48,-23.922 -3.05,-7.257 -32.13,-76.886 -49.7,-124.476 h -7.04"
         style="fill:#231f20;fill-opacity:1;fill-rule:nonzero;stroke:none"
         transform="matrix(0.13333333,0,0,-0.13333333,0,217.90667)" />
      <path
         id="path7"
         d="m 2752.67,255.719 c 0,25.551 -1.87,27.191 -20.63,28.601 v 5.391 h 102.69 c 0.23,-3.981 1.4,-21.09 2.58,-34.231 l -5.86,-0.699 c -2.35,11.719 -4.93,17.821 -8.44,21.571 -3.75,3.988 -11.49,5.628 -25.79,5.628 h -17.82 c -6.56,0 -7.04,-0.48 -7.04,-7.269 v -53.449 h 23.69 c 20.16,0 20.86,1.398 23.21,18.75 h 5.85 v -46.41 h -5.85 c -1.18,8.66 -1.89,13.347 -4.93,15.929 -3.05,2.578 -8.21,3.051 -18.28,3.051 h -23.69 v -41.5 c 0,-13.363 1.41,-20.391 5.87,-23.211 4.45,-2.812 12.89,-2.812 23.91,-2.812 13.36,0 24.38,1.171 29.54,6.8 3.99,4.223 7.74,12.192 11.25,22.981 l 5.86,-0.711 c -1.17,-6.559 -6.32,-30.481 -8.21,-36.797 H 2729.7 v 5.387 c 21.1,1.402 22.97,3.043 22.97,28.601 v 84.399"
         style="fill:#231f20;fill-opacity:1;fill-rule:nonzero;stroke:none"
         transform="matrix(0.13333333,0,0,-0.13333333,0,217.90667)" />
      <path
         id="path8"
         d="m 2945.61,211.172 h 13.6 c 9.61,0 17.12,1.18 23.45,6.34 10.08,7.957 13.6,19.449 13.6,30.937 0,24.621 -17.82,34.461 -35.4,34.461 -7.97,0 -11.26,-0.461 -13.13,-1.172 -1.41,-0.468 -2.12,-1.636 -2.12,-6.328 z m 0,-39.852 c 0,-25.558 1.89,-27.199 21.11,-28.601 v -5.387 h -62.37 v 5.387 c 19.7,1.402 21.58,3.043 21.58,28.601 v 84.399 c 0,25.551 -1.88,27.191 -20.63,28.601 v 5.391 h 59.54 c 15.01,0 28.37,-2.109 37.04,-7.973 9.38,-5.859 15.48,-16.406 15.48,-30.008 0,-19.46 -11.96,-33.289 -30.95,-41.019 4.22,-7.039 13.83,-23.211 20.86,-33.531 8.45,-12.43 13.36,-18.75 19.7,-25.789 4.92,-5.86 9.15,-9.61 17.58,-11.719 l -0.47,-4.453 h -3.28 c -26.97,0.703 -35.17,8.902 -44.07,21.801 -7.27,10.55 -17.12,27.902 -23.68,38.921 -3.75,6.09 -7.5,8.43 -14.77,8.43 h -12.67 V 171.32"
         style="fill:#231f20;fill-opacity:1;fill-rule:nonzero;stroke:none"
         transform="matrix(0.13333333,0,0,-0.13333333,0,217.90667)" />
      <path
         id="path9"
         d="m 3089.1,178.59 c 3.75,-11.02 15.7,-37.051 40.56,-37.051 17.81,0 29.07,11.961 29.07,30.25 0,19.93 -15.24,28.133 -30.25,35.402 -7.73,3.75 -39.38,14.77 -39.38,42.899 0,23.211 17.58,43.14 48.29,43.14 6.57,0 14.54,-1.398 19.46,-3.05 3.05,-0.93 6.33,-2.11 8.91,-2.578 0.94,-8.211 2.34,-17.582 4.22,-31.653 l -5.86,-0.699 c -3.98,13.832 -10.55,30.238 -31.89,30.238 -16.64,0 -25.31,-12.187 -25.31,-26.019 0,-17.348 12.42,-25.09 30.24,-33.047 15.47,-6.801 40.08,-16.41 40.08,-45.492 0,-27.192 -22.26,-47.121 -52.04,-47.121 -8.44,0 -16.41,1.64 -22.27,3.523 -5.86,1.867 -10.08,3.738 -12.9,4.918 -1.87,6.09 -4.45,22.738 -6.79,35.398 l 5.86,0.942"
         style="fill:#231f20;fill-opacity:1;fill-rule:nonzero;stroke:none"
         transform="matrix(0.13333333,0,0,-0.13333333,0,217.90667)" />
      <path
         id="path10"
         d="m 3277.59,171.32 c 0,-25.558 1.88,-27.199 21.1,-28.601 v -5.387 h -61.89 v 5.387 c 19.22,1.402 21.1,3.043 21.1,28.601 v 84.399 c 0,25.551 -1.88,27.191 -21.1,28.601 v 5.391 h 61.89 v -5.391 c -19.22,-1.41 -21.1,-3.05 -21.1,-28.601 V 171.32"
         style="fill:#231f20;fill-opacity:1;fill-rule:nonzero;stroke:none"
         transform="matrix(0.13333333,0,0,-0.13333333,0,217.90667)" />
      <path
         id="path11"
         d="m 3429.28,171.32 c 0,-25.558 1.87,-27.199 24.85,-28.601 v -5.387 h -68.46 v 5.387 c 22.04,1.402 23.91,3.043 23.91,28.601 v 110.66 h -11.01 c -20.87,0 -27.2,-3.05 -30.72,-7.511 -2.58,-3.278 -5.39,-9.84 -8.2,-20.149 h -5.87 c 0.95,14.301 2.35,29.301 2.82,41.25 h 3.28 c 3.52,-5.39 5.86,-5.859 12.19,-5.859 h 96.12 c 6.1,0 7.27,1.41 11.02,5.859 h 3.28 c 0.24,-9.84 1.41,-26.949 2.59,-40.55 l -5.87,-0.7 c -2.35,11.239 -4.92,17.809 -8.44,21.559 -3.98,4.461 -11.25,6.101 -25.79,6.101 h -15.7 V 171.32"
         style="fill:#231f20;fill-opacity:1;fill-rule:nonzero;stroke:none"
         transform="matrix(0.13333333,0,0,-0.13333333,0,217.90667)" />
      <path
         id="path12"
         d="m 3569.94,297.211 -2.58,3.519 38.45,23.45 c 3.99,2.34 6.56,2.101 9.38,-1.641 l 2.1,-3.051 c 3.53,-3.75 1.18,-5.398 -1.87,-6.566 z m -16.17,-41.492 c 0,25.551 -1.89,27.191 -20.64,28.601 v 5.391 h 102.69 c 0.23,-3.981 1.41,-21.09 2.58,-34.231 l -5.86,-0.699 c -2.34,11.719 -4.92,17.821 -8.45,21.571 -3.74,3.988 -11.48,5.628 -25.79,5.628 h -17.81 c -6.56,0 -7.03,-0.48 -7.03,-7.269 v -53.449 h 23.68 c 20.15,0 20.86,1.398 23.21,18.75 h 5.86 v -46.41 h -5.86 c -1.18,8.66 -1.88,13.347 -4.93,15.929 -3.05,2.578 -8.2,3.051 -18.28,3.051 h -23.68 v -41.5 c 0,-13.363 1.4,-20.391 5.86,-23.211 4.46,-2.812 12.89,-2.812 23.91,-2.812 13.37,0 24.39,1.171 29.54,6.8 3.99,4.223 7.73,12.192 11.26,22.981 l 5.85,-0.711 c -1.17,-6.559 -6.33,-30.481 -8.2,-36.797 h -110.89 v 5.387 c 21.09,1.402 22.98,3.043 22.98,28.601 v 84.399"
         style="fill:#231f20;fill-opacity:1;fill-rule:nonzero;stroke:none"
         transform="matrix(0.13333333,0,0,-0.13333333,0,217.90667)" />
      <path
         id="path13"
         d="m 3844,167.332 c 0,-10.781 0.71,-15.473 3.98,-18.281 3.05,-2.582 8.68,-3.992 16.65,-3.992 49.23,0 68.22,34 68.22,69.16 0,23.679 -5.15,48.761 -28.6,60.961 -9.14,4.922 -22.51,7.73 -41.26,7.73 -11.72,0 -15.01,-0.699 -16.88,-1.41 -1.4,-0.461 -2.11,-1.871 -2.11,-6.559 z m 25.79,122.379 c 27.9,0 50.4,-5.629 65.41,-19.691 11.72,-11.02 20.39,-28.141 20.39,-49.7 0,-57.91 -44.3,-82.988 -99.4,-82.988 h -53.92 v 5.387 c 20.16,1.402 22.04,3.043 22.04,28.601 v 84.399 c 0,25.551 -1.88,27.191 -20.17,28.601 v 5.391 h 65.65"
         style="fill:#231f20;fill-opacity:1;fill-rule:nonzero;stroke:none"
         transform="matrix(0.13333333,0,0,-0.13333333,0,217.90667)" />
      <path
         id="path14"
         d="m 4067.65,289.711 v -5.391 c -18.75,-1.41 -20.63,-3.05 -20.63,-28.601 v -49 c 0,-19.918 2.58,-34.93 9.85,-45.481 7.27,-10.316 18.06,-16.179 33.76,-16.179 14.77,0 26.96,6.332 34.47,17.582 7.73,11.73 10.54,32.359 10.54,52.05 v 12.661 c 0,24.617 -0.93,37.507 -1.87,44.777 -1.17,8.211 -7.51,11.492 -22.98,12.191 v 5.391 h 56.27 v -5.391 c -12.89,-0.468 -18.99,-3.98 -20.16,-12.191 -0.94,-7.27 -1.88,-20.16 -1.88,-44.777 v -15.711 c 0,-27.192 -4.22,-46.411 -17.81,-60.95 -10.09,-10.781 -26.97,-16.882 -43.38,-16.882 -12.89,0 -27.66,3.043 -38.44,11.953 -12.43,10.09 -18.05,26.027 -18.05,52.758 v 57.199 c 0,25.551 -1.88,27.191 -21.57,28.601 v 5.391 h 61.88"
         style="fill:#231f20;fill-opacity:1;fill-rule:nonzero;stroke:none"
         transform="matrix(0.13333333,0,0,-0.13333333,0,217.90667)" />
      <path
         id="path15"
         d="m 4359.3,289.711 56.74,-120.742 55.8,120.742 h 38.68 v -5.391 c -20.4,-1.64 -21.81,-2.582 -21.1,-28.601 l 1.87,-84.399 c 0.71,-26.261 1.41,-26.961 22.04,-28.601 v -5.387 h -61.89 v 5.387 c 19.69,1.64 20.4,2.34 20.16,28.601 l -0.94,94.481 h -0.94 L 4412.29,139.91 h -5.86 l -54.16,122.61 h -0.47 l -2.34,-65.411 c -0.95,-22.039 -0.95,-34.937 0,-42.199 1.17,-8.68 6.8,-11.019 22.03,-12.191 v -5.387 h -55.09 v 5.387 c 13.13,1.172 18.05,3.511 19.69,12.191 1.41,7.262 2.81,21.328 3.99,44.539 l 2.58,49.231 c 1.64,31.422 0,34 -22.04,35.64 v 5.391 h 38.68"
         style="fill:#231f20;fill-opacity:1;fill-rule:nonzero;stroke:none"
         transform="matrix(0.13333333,0,0,-0.13333333,0,217.90667)" />
      <path
         id="path16"
         d="m 4599.85,204.141 h 41.49 l -20.63,57.679 h -0.47 z m 44.77,-61.422 7.5,0.929 c 8.68,0.954 9.61,3.524 7.26,10.793 -1.63,5.618 -8.43,23.911 -15,40.789 h -47.59 c -2.34,-6.089 -8.44,-24.378 -11.72,-34.218 -4.45,-13.602 -2.34,-16.653 8.21,-17.59 l 7.03,-0.703 v -5.387 h -50.17 v 5.387 c 15.24,1.64 17.12,3.043 25.32,23.91 l 48.29,124.492 5.39,2.109 16.65,-44.55 c 11.02,-29.77 21.34,-59.539 30.48,-83.45 7.5,-19.699 10.55,-21.339 25.08,-22.511 v -5.387 h -56.73 v 5.387"
         style="fill:#231f20;fill-opacity:1;fill-rule:nonzero;stroke:none"
         transform="matrix(0.13333333,0,0,-0.13333333,0,217.90667)" />
      <path
         id="path17"
         d="m 4882.81,135.691 h -6.09 l -101.75,123.547 h -0.47 v -59.789 c 0,-24.609 0.94,-37.277 1.87,-44.539 1.18,-8.199 7.51,-11.488 22.98,-12.191 v -5.387 h -56.26 v 5.387 c 12.89,0.472 18.99,3.992 20.16,12.191 0.93,7.262 1.87,19.93 1.87,44.539 v 50.883 c 0,16.867 -0.23,20.629 -4.45,26.02 -4.45,5.628 -10.78,7.269 -20.63,7.968 v 5.391 h 34.22 l 98.71,-118.16 h 0.46 v 56.031 c 0,24.617 -0.93,37.277 -1.87,44.547 -1.17,8.211 -7.5,11.492 -22.98,12.191 v 5.391 h 56.26 v -5.391 c -12.88,-0.468 -18.98,-3.98 -20.15,-12.191 -0.94,-7.27 -1.88,-19.93 -1.88,-44.547 v -91.891"
         style="fill:#231f20;fill-opacity:1;fill-rule:nonzero;stroke:none"
         transform="matrix(0.13333333,0,0,-0.13333333,0,217.90667)" />
      <path
         id="path18"
         d="m 4992.77,171.32 c 0,-25.558 1.88,-27.199 21.1,-28.601 v -5.387 h -61.9 v 5.387 c 19.23,1.402 21.11,3.043 21.11,28.601 v 84.399 c 0,25.551 -1.88,27.191 -21.11,28.601 v 5.391 h 61.9 v -5.391 c -19.22,-1.41 -21.1,-3.05 -21.1,-28.601 V 171.32"
         style="fill:#231f20;fill-opacity:1;fill-rule:nonzero;stroke:none"
         transform="matrix(0.13333333,0,0,-0.13333333,0,217.90667)" />
      <path
         id="path19"
         d="m 5137.66,171.32 c 0,-25.558 1.87,-27.199 24.85,-28.601 v -5.387 h -68.46 v 5.387 c 22.04,1.402 23.91,3.043 23.91,28.601 v 110.66 h -11.02 c -20.86,0 -27.19,-3.05 -30.71,-7.511 -2.58,-3.278 -5.39,-9.84 -8.2,-20.149 h -5.87 c 0.95,14.301 2.35,29.301 2.82,41.25 h 3.28 c 3.52,-5.39 5.86,-5.859 12.19,-5.859 h 96.12 c 6.1,0 7.27,1.41 11.02,5.859 h 3.28 c 0.24,-9.84 1.41,-26.949 2.58,-40.55 l -5.86,-0.7 c -2.35,11.239 -4.92,17.809 -8.44,21.559 -3.98,4.461 -11.25,6.101 -25.79,6.101 h -15.7 V 171.32"
         style="fill:#231f20;fill-opacity:1;fill-rule:nonzero;stroke:none"
         transform="matrix(0.13333333,0,0,-0.13333333,0,217.90667)" />
      <path
         id="path20"
         d="m 5305.04,285.488 c -27.66,0 -51.1,-22.738 -51.1,-66.816 0,-45.242 23.68,-77.133 57.9,-77.133 28.14,0 51.11,21.813 51.11,65.41 0,50.641 -24.38,78.539 -57.91,78.539 z m 80.65,-69.859 c 0,-48.77 -33.99,-81.82 -78.77,-81.82 -44.31,0 -75.72,33.761 -75.72,78.07 0,39.383 27.66,81.351 79.94,81.351 40.56,0 74.55,-31.41 74.55,-77.601"
         style="fill:#231f20;fill-opacity:1;fill-rule:nonzero;stroke:none"
         transform="matrix(0.13333333,0,0,-0.13333333,0,217.90667)" />
      <path
         id="path21"
         d="m 5469.86,216.57 v -51.109 c 0,-15.711 3.04,-21.102 20.16,-20.859 19.7,0 36.34,9.839 36.34,34.687 0,25.551 -18.75,37.281 -42.9,37.281 z m 0,6.789 h 14.77 c 22.51,0 33.76,10.563 33.76,29.782 0,14.058 -5.86,29.769 -33.53,29.769 -7.73,0 -11.01,-0.699 -12.88,-1.41 -1.42,-0.461 -2.12,-1.398 -2.12,-6.09 z m 22.98,66.352 c 16.88,0 26.49,-2.813 34.22,-8.211 7.98,-5.621 12.19,-14.059 12.19,-25.781 0,-20.629 -19.46,-30.707 -30.71,-33.528 v -0.461 c 21.34,-3.058 40.56,-15.71 40.56,-39.39 0,-16.641 -8.21,-28.371 -21.8,-36.11 -11.96,-6.558 -26.96,-8.898 -44.78,-8.898 h -53.92 v 5.387 c 19.69,1.402 21.57,3.043 21.57,28.601 v 84.399 c -0.24,25.551 -1.64,27.191 -20.16,28.601 v 5.391 h 62.83"
         style="fill:#231f20;fill-opacity:1;fill-rule:nonzero;stroke:none"
         transform="matrix(0.13333333,0,0,-0.13333333,0,217.90667)" />
      <path
         id="path22"
         d="m 5625.53,204.141 h 41.5 l -20.64,57.679 h -0.46 z m 44.78,-61.422 7.51,0.929 c 8.66,0.954 9.61,3.524 7.26,10.793 -1.64,5.618 -8.44,23.911 -15.01,40.789 h -47.59 c -2.34,-6.089 -8.44,-24.378 -11.72,-34.218 -4.45,-13.602 -2.34,-16.653 8.21,-17.59 l 7.03,-0.703 v -5.387 h -50.17 v 5.387 c 15.24,1.64 17.11,3.043 25.32,23.91 l 48.3,124.492 5.39,2.109 16.64,-44.55 c 11.02,-29.77 21.34,-59.539 30.48,-83.45 7.5,-19.699 10.55,-21.339 25.09,-22.511 v -5.387 h -56.74 v 5.387"
         style="fill:#231f20;fill-opacity:1;fill-rule:nonzero;stroke:none"
         transform="matrix(0.13333333,0,0,-0.13333333,0,217.90667)" />
      <path
         id="path23"
         d="m 2088.37,896.887 v -13.555 l -16.46,-2.426 c -7.75,-1.445 -7.75,-5.808 -2.91,-19.359 13.56,-36.801 31.95,-84.727 42.6,-109.418 11.14,27.598 26.63,70.687 38.74,106.512 5.32,15.011 5.32,20.336 -4.84,21.789 l -16.95,2.902 v 13.555 h 85.69 v -13.555 c -24.2,-2.902 -28.56,-5.812 -38.73,-28.562 -19.85,-44.059 -44.06,-100.704 -70.68,-171.875 h -17.43 l -69.23,169.933 c -10.17,24.692 -12.11,27.602 -39.21,30.504 v 13.555 h 109.41"
         style="fill:#4f4c4c;fill-opacity:1;fill-rule:nonzero;stroke:none"
         transform="matrix(0.13333333,0,0,-0.13333333,0,217.90667)" />
      <path
         id="path24"
         d="m 2284.94,923.996 50.83,74.078 c 6.78,10.166 12.11,9.196 20.82,4.836 l 8.71,-5.32 c 10.18,-5.332 8.24,-12.106 -0.96,-20.336 l -68.75,-59.07 z m 54.71,-98.281 c 6.77,0 8.71,2.91 8.71,13.558 0,19.368 -15,44.543 -36.31,44.543 -20.33,0 -40.66,-22.753 -44.54,-59.07 z m 56.64,-94.883 c -27.59,-40.187 -63.9,-49.867 -77.46,-49.867 -63.42,0 -100.7,45.019 -101.67,101.664 -0.97,60.523 44.06,120.066 107.96,120.066 40.67,0 72.14,-34.375 72.14,-69.23 0,-17.914 -0.97,-18.883 -10.17,-20.82 -6.78,-0.965 -69.23,-5.809 -122,-7.743 -0.97,-61 37.28,-86.175 73.59,-86.175 16.46,0 31.95,5.808 50.83,20.328 l 6.78,-8.223"
         style="fill:#4f4c4c;fill-opacity:1;fill-rule:nonzero;stroke:none"
         transform="matrix(0.13333333,0,0,-0.13333333,0,217.90667)" />
      <path
         id="path25"
         d="m 2501.86,854.77 h 1.45 c 11.62,18.398 30.99,48.898 54.71,48.898 17.42,0 30.01,-14.527 30.01,-28.086 0,-12.102 -8.71,-26.137 -19.85,-30.5 -5.32,-1.93 -11.13,-0.969 -14.04,1.938 -6.78,6.781 -14.52,10.652 -22.27,10.652 -8.23,0 -19.36,-5.813 -30.01,-27.109 v -97.801 c 0,-26.621 2.9,-29.532 38.25,-32.43 v -13.559 h -119.59 v 13.559 c 28.56,2.898 31.47,5.809 31.47,32.43 v 107.965 c 0,29.531 -0.97,30.5 -30.98,33.41 v 11.133 c 23.72,3.871 55.67,10.648 80.85,18.398 V 854.77"
         style="fill:#4f4c4c;fill-opacity:1;fill-rule:nonzero;stroke:none"
         transform="matrix(0.13333333,0,0,-0.13333333,0,217.90667)" />
      <path
         id="path26"
         d="m 2696.48,985 c 0,-16.949 -14.53,-30.5 -31.47,-30.5 -16.46,0 -30.99,13.551 -30.99,30.5 0,18.4 14.53,31.95 30.99,31.95 16.94,0 31.47,-13.55 31.47,-31.95 z m -4.84,-252.238 c 0,-26.621 2.9,-29.532 33.4,-32.43 v -13.559 h -116.19 v 13.559 c 30.98,2.898 32.92,5.809 32.92,32.43 v 107.965 c 0,29.531 -0.97,30.5 -30.99,33.41 v 11.133 c 23.73,3.871 55.68,10.648 80.86,18.398 V 732.762"
         style="fill:#4f4c4c;fill-opacity:1;fill-rule:nonzero;stroke:none"
         transform="matrix(0.13333333,0,0,-0.13333333,0,217.90667)" />
      <path
         id="path27"
         d="m 2821.39,959.34 v -62.453 h 49.87 c 5.81,-5.809 3.87,-18.399 -2.9,-22.274 h -46.97 V 755.035 c 0,-37.762 17.91,-44.055 27.6,-44.055 7.75,0 18.88,2.415 29.53,8.231 l 5.81,-12.109 -42.6,-21.297 c -7.27,-3.871 -12.11,-4.84 -15.98,-4.84 -36.31,0 -54.23,17.426 -54.23,57.605 v 136.043 h -32.91 l -2.91,6.778 15.5,15.496 h 20.32 v 29.047 l 43.09,37.277 6.78,-3.871"
         style="fill:#4f4c4c;fill-opacity:1;fill-rule:nonzero;stroke:none"
         transform="matrix(0.13333333,0,0,-0.13333333,0,217.90667)" />
      <path
         id="path28"
         d="m 2964.22,923.996 50.84,74.078 c 6.78,10.166 12.1,9.196 20.82,4.836 l 8.71,-5.32 c 10.17,-5.332 8.23,-12.106 -0.96,-20.336 l -68.75,-59.07 z m 54.72,-98.281 c 6.77,0 8.71,2.91 8.71,13.558 0,19.368 -15.01,44.543 -36.31,44.543 -20.34,0 -40.67,-22.753 -44.54,-59.07 z m 56.63,-94.883 c -27.59,-40.187 -63.9,-49.867 -77.45,-49.867 -63.43,0 -100.71,45.019 -101.67,101.664 -0.97,60.523 44.05,120.066 107.96,120.066 40.66,0 72.13,-34.375 72.13,-69.23 0,-17.914 -0.97,-18.883 -10.16,-20.82 -6.78,-0.965 -69.23,-5.809 -122,-7.743 -0.97,-61 37.28,-86.175 73.59,-86.175 16.46,0 31.94,5.808 50.83,20.328 l 6.77,-8.223"
         style="fill:#4f4c4c;fill-opacity:1;fill-rule:nonzero;stroke:none"
         transform="matrix(0.13333333,0,0,-0.13333333,0,217.90667)" />
      <path
         id="path29"
         d="m 3333.43,859.125 c 0,17.91 -14.04,23.723 -24.2,23.723 -5.81,0 -13.08,-1.942 -16.95,-4.36 -15.01,-8.23 -38.25,-32.437 -46.96,-86.172 67.29,19.852 88.11,40.664 88.11,66.809 z m 25.18,-122.969 c -48.9,-49.383 -89.09,-55.191 -105.54,-55.191 -18.4,0 -49.87,13.555 -49.87,70.68 0,44.054 20.33,93.921 56.16,121.523 21.3,16.457 50.35,29.527 71.16,29.527 24.69,0 40.67,-16.457 40.67,-36.308 0,-44.055 -81.82,-75.039 -128.3,-88.598 -0.48,-2.902 -1.44,-9.195 -1.44,-11.617 0,-25.176 5.32,-58.102 36.79,-58.102 17.91,0 42.6,8.719 73.1,37.766 l 7.27,-9.68"
         style="fill:#4f4c4c;fill-opacity:1;fill-rule:nonzero;stroke:none"
         transform="matrix(0.13333333,0,0,-0.13333333,0,217.90667)" />
      <path
         id="path30"
         d="m 3503.86,740.027 c -15.49,-20.816 -59.06,-59.062 -81.82,-59.062 -8.71,0 -17.91,16.941 -9.68,54.223 l 30.02,138.464 h -38.73 l -3.39,5.809 13.55,11.617 h 32.92 l 9.21,36.793 35.82,29.047 4.36,-2.902 -15.49,-62.938 h 61.97 l -14.05,-15.012 -51.8,-2.414 -28.08,-127.332 c -4.84,-22.269 -2.9,-32.925 1.94,-32.925 11.14,0 34.37,22.761 45.51,32.925 l 7.74,-6.293"
         style="fill:#4f4c4c;fill-opacity:1;fill-rule:nonzero;stroke:none"
         transform="matrix(0.13333333,0,0,-0.13333333,0,217.90667)" />
      <path
         id="path31"
         d="m 3747.83,732.762 c 0,-26.621 1.93,-29.532 33.4,-32.43 v -13.559 h -116.19 v 13.559 c 30.02,2.898 32.92,5.809 32.92,32.43 v 237.226 c 0,28.563 -0.97,28.563 -32.44,31.472 v 12.59 c 20.82,2.9 56.65,10.65 82.31,16.46 V 732.762"
         style="fill:#4f4c4c;fill-opacity:1;fill-rule:nonzero;stroke:none"
         transform="matrix(0.13333333,0,0,-0.13333333,0,217.90667)" />
      <path
         id="path32"
         d="m 3915.82,805.871 c -10.17,-4.848 -29.53,-14.523 -38.24,-19.363 -15.98,-8.719 -23.24,-18.883 -23.24,-36.313 0,-25.175 16.46,-36.8 29.05,-36.8 8.71,0 21.3,5.816 32.43,15.496 z m 85.21,-98.769 -49.87,-26.137 c -22.26,0.969 -31.95,18.394 -34.37,30.5 -20.33,-12.106 -46.48,-30.5 -56.16,-30.5 -36.31,0 -59.06,30.5 -59.06,58.578 0,23.719 11.13,40.184 36.31,50.832 23.72,9.68 62.45,23.723 77.94,33.41 v 13.07 c 0,28.563 -12.58,41.633 -34.86,41.633 -7.74,0 -14.52,-3.875 -18.88,-8.23 -7.74,-6.293 -12.58,-17.43 -16.46,-35.824 -1.45,-6.778 -7.74,-10.649 -15.49,-10.649 -10.65,0 -24.69,9.68 -24.69,21.297 0,6.777 4.84,14.527 15.01,22.273 15.01,10.653 45.02,28.563 80.85,35.34 16.94,0 31.95,-4.355 41.63,-11.617 18.4,-14.043 20.34,-30.015 20.34,-46.965 V 740.512 c 0,-19.367 6.78,-27.117 13.55,-27.117 5.81,0 13.08,2.91 19.37,5.816 l 4.84,-12.109"
         style="fill:#4f4c4c;fill-opacity:1;fill-rule:nonzero;stroke:none"
         transform="matrix(0.13333333,0,0,-0.13333333,0,217.90667)" />
      <path
         id="path33"
         d="m 4193.81,854.77 h 1.45 c 11.62,18.398 30.98,48.898 54.71,48.898 17.42,0 30.01,-14.527 30.01,-28.086 0,-12.102 -8.72,-26.137 -19.85,-30.5 -5.32,-1.93 -11.13,-0.969 -14.04,1.938 -6.78,6.781 -14.52,10.652 -22.27,10.652 -8.23,0 -19.37,-5.813 -30.01,-27.109 v -97.801 c 0,-26.621 2.9,-29.532 38.24,-32.43 v -13.559 h -119.58 v 13.559 c 28.56,2.898 31.47,5.809 31.47,32.43 v 107.965 c 0,29.531 -0.97,30.5 -30.98,33.41 v 11.133 c 23.72,3.871 55.67,10.648 80.85,18.398 V 854.77"
         style="fill:#4f4c4c;fill-opacity:1;fill-rule:nonzero;stroke:none"
         transform="matrix(0.13333333,0,0,-0.13333333,0,217.90667)" />
      <path
         id="path34"
         d="m 4358.91,923.996 50.83,74.078 c 6.78,10.166 12.11,9.196 20.82,4.836 l 8.71,-5.32 c 10.17,-5.332 8.24,-12.106 -0.96,-20.336 l -68.75,-59.07 z m 54.71,-98.281 c 6.77,0 8.71,2.91 8.71,13.558 0,19.368 -15,44.543 -36.31,44.543 -20.33,0 -40.66,-22.753 -44.54,-59.07 z m 56.64,-94.883 c -27.59,-40.187 -63.9,-49.867 -77.46,-49.867 -63.42,0 -100.7,45.019 -101.67,101.664 -0.97,60.523 44.06,120.066 107.96,120.066 40.67,0 72.14,-34.375 72.14,-69.23 0,-17.914 -0.97,-18.883 -10.17,-20.82 -6.78,-0.965 -69.23,-5.809 -122,-7.743 -0.97,-61 37.28,-86.175 73.59,-86.175 16.46,0 31.95,5.808 50.83,20.328 l 6.78,-8.223"
         style="fill:#4f4c4c;fill-opacity:1;fill-rule:nonzero;stroke:none"
         transform="matrix(0.13333333,0,0,-0.13333333,0,217.90667)" />
      <path
         id="path35"
         d="m 4675.87,732.211 c -19.21,-29.512 -48.72,-51.063 -77.76,-51.063 -63.25,0 -98.85,47.786 -98.85,97.911 0,34.664 16.4,67.457 43.1,88.539 29.04,22.484 61.37,28.109 77.76,28.109 12.18,0 32.8,-4.691 42.63,-12.648 3.75,-3.286 5.16,-7.032 5.16,-12.188 0,-13.582 -10.78,-23.883 -17.34,-23.883 -2.34,0 -5.15,0.934 -8.9,4.211 -18.74,16.399 -34.2,20.145 -47.78,20.145 -17.8,0 -46.38,-14.992 -46.38,-68.395 0,-66.519 45.91,-85.258 67.93,-85.258 19.67,0 32.79,5.625 52,22.957 l 8.43,-8.437"
         style="fill:#4f4c4c;fill-opacity:1;fill-rule:nonzero;stroke:none"
         transform="matrix(0.13333333,0,0,-0.13333333,0,217.90667)" />
      <path
         id="path36"
         d="m 4843.57,783.277 c 0,58.086 -18.74,95.09 -53.88,95.09 -22.95,0 -44.97,-28.574 -44.97,-79.164 0,-59.5 21.08,-100.723 55.28,-100.723 20.15,0 43.57,18.274 43.57,84.797 z m 55.74,8.895 c 0,-73.547 -53.86,-111.024 -103.99,-111.024 -70.27,0 -106.34,52.004 -106.34,103.063 0,74.953 58.56,111.496 107.27,111.496 61.84,0 103.06,-47.785 103.06,-103.535"
         style="fill:#4f4c4c;fill-opacity:1;fill-rule:nonzero;stroke:none"
         transform="matrix(0.13333333,0,0,-0.13333333,0,217.90667)" />
      <path
         id="path37"
         d="m 4997.69,863.379 c 9.37,5.625 18.74,11.711 27.17,17.336 14.99,9.84 26.71,14.992 41.23,14.992 37.94,0 60.43,-26.234 60.43,-61.84 V 730.34 c 0,-25.762 1.87,-27.641 28.1,-30.453 v -13.114 h -104.93 v 13.114 c 26.7,2.812 28.57,4.691 28.57,30.453 v 90.414 c 0,28.101 -13.58,43.566 -37.94,43.566 -14.05,0 -29.51,-7.968 -42.63,-19.211 V 730.34 c 0,-25.762 2.82,-27.641 26.24,-30.453 v -13.114 h -107.75 v 13.114 c 30.45,2.812 33.26,4.691 33.26,30.453 v 105.402 c 0,28.578 -0.94,29.512 -29.98,32.324 v 10.774 c 22.95,3.746 53.87,10.305 78.23,17.801 v -33.262"
         style="fill:#4f4c4c;fill-opacity:1;fill-rule:nonzero;stroke:none"
         transform="matrix(0.13333333,0,0,-0.13333333,0,217.90667)" />
      <path
         id="path38"
         d="m 5339.65,732.211 c -19.2,-29.512 -48.71,-51.063 -77.76,-51.063 -63.24,0 -98.84,47.786 -98.84,97.911 0,34.664 16.39,67.457 43.09,88.539 29.05,22.484 61.37,28.109 77.77,28.109 12.17,0 32.79,-4.691 42.63,-12.648 3.74,-3.286 5.15,-7.032 5.15,-12.188 0,-13.582 -10.77,-23.883 -17.33,-23.883 -2.34,0 -5.16,0.934 -8.9,4.211 -18.74,16.399 -34.2,20.145 -47.79,20.145 -17.8,0 -46.38,-14.992 -46.38,-68.395 0,-66.519 45.91,-85.258 67.93,-85.258 19.68,0 32.8,5.625 52,22.957 l 8.43,-8.437"
         style="fill:#4f4c4c;fill-opacity:1;fill-rule:nonzero;stroke:none"
         transform="matrix(0.13333333,0,0,-0.13333333,0,217.90667)" />
      <path
         id="path39"
         d="m 5437.55,975.344 c 0,-16.399 -14.05,-29.52 -30.44,-29.52 -15.94,0 -29.98,13.121 -29.98,29.52 0,17.801 14.04,30.916 29.98,30.916 16.39,0 30.44,-13.115 30.44,-30.916 z m -4.68,-244.071 c 0,-25.761 2.81,-28.574 32.32,-31.386 v -13.114 h -112.43 v 13.114 c 29.98,2.812 31.86,5.625 31.86,31.386 v 104.469 c 0,28.578 -0.94,29.512 -29.98,32.324 v 10.774 c 22.95,3.746 53.87,10.305 78.23,17.801 V 731.273"
         style="fill:#4f4c4c;fill-opacity:1;fill-rule:nonzero;stroke:none"
         transform="matrix(0.13333333,0,0,-0.13333333,0,217.90667)" />
      <path
         id="path40"
         d="m 5557.47,731.273 c 0,-25.761 1.88,-28.574 32.32,-31.386 v -13.114 h -112.43 v 13.114 c 29.05,2.812 31.86,5.625 31.86,31.386 v 229.543 c 0,27.637 -0.93,27.637 -31.39,30.454 v 12.18 c 20.15,2.81 54.81,10.3 79.64,15.93 V 731.273"
         style="fill:#4f4c4c;fill-opacity:1;fill-rule:nonzero;stroke:none"
         transform="matrix(0.13333333,0,0,-0.13333333,0,217.90667)" />
      <path
         id="path41"
         d="m 5690.97,975.344 c 0,-16.399 -14.05,-29.52 -30.44,-29.52 -15.94,0 -29.98,13.121 -29.98,29.52 0,17.801 14.04,30.916 29.98,30.916 16.39,0 30.44,-13.115 30.44,-30.916 z m -4.68,-244.071 c 0,-25.761 2.81,-28.574 32.32,-31.386 v -13.114 h -112.43 v 13.114 c 29.98,2.812 31.86,5.625 31.86,31.386 v 104.469 c 0,28.578 -0.94,29.512 -29.98,32.324 v 10.774 c 22.95,3.746 53.87,10.305 78.23,17.801 V 731.273"
         style="fill:#4f4c4c;fill-opacity:1;fill-rule:nonzero;stroke:none"
         transform="matrix(0.13333333,0,0,-0.13333333,0,217.90667)" />
      <path
         id="path42"
         d="m 5841.34,802.016 c -9.83,-4.692 -28.57,-14.055 -37,-18.739 -15.46,-8.437 -22.49,-18.273 -22.49,-35.136 0,-24.364 15.93,-35.606 28.1,-35.606 8.44,0 20.62,5.625 31.39,14.992 z m 82.45,-95.571 -48.25,-25.297 c -21.55,0.942 -30.91,17.805 -33.26,29.52 -19.68,-11.715 -44.97,-29.52 -54.34,-29.52 -35.13,0 -57.15,29.52 -57.15,56.688 0,22.957 10.77,38.883 35.14,49.187 22.95,9.368 60.42,22.954 75.41,32.325 v 12.648 c 0,27.633 -12.18,40.281 -33.73,40.281 -7.49,0 -14.04,-3.746 -18.26,-7.957 -7.5,-6.09 -12.18,-16.871 -15.93,-34.672 -1.41,-6.554 -7.49,-10.3 -14.99,-10.3 -10.31,0 -23.89,9.367 -23.89,20.609 0,6.559 4.68,14.055 14.52,21.551 14.52,10.305 43.56,27.637 78.23,34.199 16.4,0 30.92,-4.219 40.29,-11.242 17.8,-13.594 19.68,-29.047 19.68,-45.445 V 738.77 c 0,-18.739 6.55,-26.235 13.11,-26.235 5.62,0 12.65,2.813 18.74,5.625 l 4.68,-11.715"
         style="fill:#4f4c4c;fill-opacity:1;fill-rule:nonzero;stroke:none"
         transform="matrix(0.13333333,0,0,-0.13333333,0,217.90667)" />
      <path
         id="path43"
         d="m 6003.43,950.516 v -60.434 h 48.25 c 5.62,-5.617 3.75,-17.805 -2.81,-21.551 h -45.44 V 752.824 c 0,-36.539 17.34,-42.629 26.7,-42.629 7.5,0 18.27,2.34 28.58,7.965 l 5.62,-11.715 -41.22,-20.605 c -7.03,-3.75 -11.72,-4.692 -15.47,-4.692 -35.13,0 -52.46,16.868 -52.46,55.75 v 131.633 h -31.85 l -2.82,6.559 14.99,14.992 h 19.68 v 28.109 l 41.69,36.071 6.56,-3.746"
         style="fill:#4f4c4c;fill-opacity:1;fill-rule:nonzero;stroke:none"
         transform="matrix(0.13333333,0,0,-0.13333333,0,217.90667)" />
      <path
         id="path44"
         d="m 6164.96,975.344 c 0,-16.399 -14.05,-29.52 -30.44,-29.52 -15.93,0 -29.98,13.121 -29.98,29.52 0,17.801 14.05,30.916 29.98,30.916 16.39,0 30.44,-13.115 30.44,-30.916 z m -4.68,-244.071 c 0,-25.761 2.81,-28.574 32.32,-31.386 v -13.114 h -112.43 v 13.114 c 29.99,2.812 31.86,5.625 31.86,31.386 v 104.469 c 0,28.578 -0.94,29.512 -29.98,32.324 v 10.774 c 22.95,3.746 53.87,10.305 78.23,17.801 V 731.273"
         style="fill:#4f4c4c;fill-opacity:1;fill-rule:nonzero;stroke:none"
         transform="matrix(0.13333333,0,0,-0.13333333,0,217.90667)" />
      <path
         id="path45"
         d="m 6359.37,783.277 c 0,58.086 -18.74,95.09 -53.87,95.09 -22.95,0 -44.97,-28.574 -44.97,-79.164 0,-59.5 21.08,-100.723 55.28,-100.723 20.14,0 43.56,18.274 43.56,84.797 z m 55.75,8.895 c 0,-73.547 -53.87,-111.024 -104,-111.024 -70.27,0 -106.34,52.004 -106.34,103.063 0,74.953 58.56,111.496 107.28,111.496 61.83,0 103.06,-47.785 103.06,-103.535"
         style="fill:#4f4c4c;fill-opacity:1;fill-rule:nonzero;stroke:none"
         transform="matrix(0.13333333,0,0,-0.13333333,0,217.90667)" />
      <path
         id="path46"
         d="m 6504.12,863.379 c 9.37,5.625 18.74,11.711 27.17,17.336 14.99,9.84 26.71,14.992 41.23,14.992 37.94,0 60.43,-26.234 60.43,-61.84 V 730.34 c 0,-25.762 1.87,-27.641 28.1,-30.453 v -13.114 h -104.93 v 13.114 c 26.7,2.812 28.57,4.691 28.57,30.453 v 90.414 c 0,28.101 -13.58,43.566 -37.94,43.566 -14.05,0 -29.51,-7.968 -42.63,-19.211 V 730.34 c 0,-25.762 2.81,-27.641 26.24,-30.453 v -13.114 h -107.75 v 13.114 c 30.45,2.812 33.26,4.691 33.26,30.453 v 105.402 c 0,28.578 -0.94,29.512 -29.98,32.324 v 10.774 c 22.95,3.746 53.87,10.305 78.23,17.801 v -33.262"
         style="fill:#4f4c4c;fill-opacity:1;fill-rule:nonzero;stroke:none"
         transform="matrix(0.13333333,0,0,-0.13333333,0,217.90667)" />
      <path
         id="path47"
         d="m 2262.98,1387.72 c -15.48,55.19 -45.98,71.66 -91.01,71.66 -79.4,0 -115.23,-66.33 -115.23,-137.98 0,-90.05 44.54,-152.51 115.23,-152.51 52.29,0 76.49,27.11 101.67,78.43 l 13.54,-2.9 c -5.8,-23.24 -16.45,-61.97 -24.2,-80.37 -13.55,-3.87 -57.13,-14.52 -91.01,-14.52 -126.85,0 -178.17,82.79 -178.17,159.28 0,101.67 78.44,169.93 186.88,169.93 41.64,0 73.59,-9.69 87.14,-12.59 3.88,-27.11 5.82,-48.41 8.71,-76.49 l -13.55,-1.94"
         style="fill:#4f4c4c;fill-opacity:1;fill-rule:nonzero;stroke:none"
         transform="matrix(0.13333333,0,0,-0.13333333,0,217.90667)" />
      <path
         id="path48"
         d="m 2430.58,1295.73 c 6.77,0 8.71,2.91 8.71,13.56 0,19.37 -15.01,44.54 -36.31,44.54 -20.34,0 -40.67,-22.75 -44.54,-59.07 z m 56.64,-94.88 c -27.59,-40.18 -63.91,-49.87 -77.46,-49.87 -63.42,0 -100.7,45.02 -101.67,101.66 -0.97,60.53 44.05,120.07 107.96,120.07 40.67,0 72.14,-34.37 72.14,-69.22 0,-17.92 -0.97,-18.88 -10.17,-20.82 -6.77,-0.97 -69.23,-5.82 -122,-7.75 -0.97,-61 37.29,-86.17 73.59,-86.17 16.46,0 31.96,5.8 50.83,20.33 l 6.78,-8.23"
         style="fill:#4f4c4c;fill-opacity:1;fill-rule:nonzero;stroke:none"
         transform="matrix(0.13333333,0,0,-0.13333333,0,217.90667)" />
      <path
         id="path49"
         d="m 2590.39,1339.31 c 9.68,5.8 19.38,12.1 28.09,17.91 15.49,10.17 27.59,15.49 42.59,15.49 39.23,0 62.46,-27.1 62.46,-63.9 v -106.99 c 0,-26.63 1.94,-28.57 29.06,-31.47 v -13.56 h -108.46 v 13.56 c 27.61,2.9 29.53,4.84 29.53,31.47 v 93.43 c 0,29.05 -14.03,45.03 -39.21,45.03 -14.52,0 -30.5,-8.23 -44.06,-19.85 v -118.61 c 0,-26.63 2.91,-28.57 27.12,-31.47 v -13.56 h -111.35 v 13.56 c 31.47,2.9 34.38,4.84 34.38,31.47 v 108.92 c 0,29.54 -0.97,30.5 -31,33.41 v 11.14 c 23.73,3.87 55.68,10.64 80.85,18.39 v -34.37"
         style="fill:#4f4c4c;fill-opacity:1;fill-rule:nonzero;stroke:none"
         transform="matrix(0.13333333,0,0,-0.13333333,0,217.90667)" />
      <path
         id="path50"
         d="M 2843.13,1429.36 V 1366.9 H 2893 c 5.81,-5.81 3.88,-18.39 -2.9,-22.26 h -46.97 v -119.59 c 0,-37.76 17.91,-44.05 27.61,-44.05 7.74,0 18.88,2.41 29.53,8.23 l 5.8,-12.11 -42.6,-21.3 c -7.26,-3.87 -12.11,-4.84 -15.97,-4.84 -36.32,0 -54.23,17.43 -54.23,57.61 v 136.05 h -32.91 l -2.91,6.77 15.49,15.49 h 20.33 v 29.06 l 43.09,37.27 6.77,-3.87"
         style="fill:#4f4c4c;fill-opacity:1;fill-rule:nonzero;stroke:none"
         transform="matrix(0.13333333,0,0,-0.13333333,0,217.90667)" />
      <path
         id="path51"
         d="m 3005.26,1324.79 h 1.46 c 11.62,18.39 30.98,48.89 54.7,48.89 17.42,0 30.01,-14.52 30.01,-28.07 0,-12.11 -8.71,-26.15 -19.85,-30.5 -5.32,-1.94 -11.13,-0.97 -14.03,1.93 -6.79,6.78 -14.53,10.66 -22.27,10.66 -8.23,0 -19.37,-5.82 -30.02,-27.12 v -97.79 c 0,-26.63 2.9,-29.54 38.25,-32.44 v -13.56 h -119.58 v 13.56 c 28.56,2.9 31.47,5.81 31.47,32.44 v 107.95 c 0,29.54 -0.97,30.5 -30.99,33.41 v 11.14 c 23.72,3.87 55.67,10.64 80.85,18.39 v -48.89"
         style="fill:#4f4c4c;fill-opacity:1;fill-rule:nonzero;stroke:none"
         transform="matrix(0.13333333,0,0,-0.13333333,0,217.90667)" />
      <path
         id="path52"
         d="m 3219.74,1295.73 c 6.77,0 8.71,2.91 8.71,13.56 0,19.37 -15,44.54 -36.3,44.54 -20.35,0 -40.67,-22.75 -44.55,-59.07 z m 56.64,-94.88 c -27.59,-40.18 -63.9,-49.87 -77.46,-49.87 -63.42,0 -100.7,45.02 -101.67,101.66 -0.97,60.53 44.05,120.07 107.96,120.07 40.67,0 72.14,-34.37 72.14,-69.22 0,-17.92 -0.97,-18.88 -10.17,-20.82 -6.77,-0.97 -69.23,-5.82 -122,-7.75 -0.97,-61 37.29,-86.17 73.59,-86.17 16.46,0 31.96,5.8 50.83,20.33 l 6.78,-8.23"
         style="fill:#4f4c4c;fill-opacity:1;fill-rule:nonzero;stroke:none"
         transform="matrix(0.13333333,0,0,-0.13333333,0,217.90667)" />
      <path
         id="path53"
         d="m 3487.49,1339.31 c 9.68,5.8 19.36,12.1 28.07,17.91 15.5,10.17 27.61,15.49 42.61,15.49 39.21,0 62.45,-27.1 62.45,-63.9 v -106.99 c 0,-26.63 1.94,-28.57 29.05,-31.47 v -13.56 h -108.44 v 13.56 c 27.59,2.9 29.53,4.84 29.53,31.47 v 93.43 c 0,29.05 -14.03,45.03 -39.21,45.03 -14.52,0 -30.5,-8.23 -44.06,-19.85 v -118.61 c 0,-26.63 2.9,-28.57 27.1,-31.47 v -13.56 h -111.35 v 13.56 c 31.47,2.9 34.38,4.84 34.38,31.47 v 108.92 c 0,29.54 -0.97,30.5 -30.98,33.41 v 11.14 c 23.72,3.87 55.68,10.64 80.85,18.39 v -34.37"
         style="fill:#4f4c4c;fill-opacity:1;fill-rule:nonzero;stroke:none"
         transform="matrix(0.13333333,0,0,-0.13333333,0,217.90667)" />
      <path
         id="path54"
         d="m 3785.74,1275.89 c -10.18,-4.84 -29.53,-14.53 -38.25,-19.37 -15.97,-8.71 -23.23,-18.88 -23.23,-36.31 0,-25.17 16.45,-36.8 29.04,-36.8 8.72,0 21.31,5.82 32.44,15.5 z m 85.2,-98.77 -49.86,-26.14 c -22.26,0.97 -31.96,18.4 -34.37,30.5 -20.33,-12.1 -46.48,-30.5 -56.16,-30.5 -36.31,0 -59.07,30.5 -59.07,58.58 0,23.73 11.14,40.18 36.31,50.84 23.73,9.68 62.45,23.71 77.95,33.4 v 13.08 c 0,28.55 -12.59,41.63 -34.86,41.63 -7.74,0 -14.53,-3.87 -18.88,-8.23 -7.74,-6.29 -12.59,-17.43 -16.47,-35.83 -1.44,-6.78 -7.74,-10.65 -15.48,-10.65 -10.66,0 -24.7,9.69 -24.7,21.31 0,6.77 4.85,14.52 15.01,22.27 15.02,10.64 45.03,28.55 80.85,35.33 16.94,0 31.96,-4.35 41.64,-11.62 18.39,-14.04 20.33,-30.01 20.33,-46.95 v -103.61 c 0,-19.36 6.78,-27.12 13.56,-27.12 5.81,0 13.08,2.91 19.37,5.82 l 4.83,-12.11"
         style="fill:#4f4c4c;fill-opacity:1;fill-rule:nonzero;stroke:none"
         transform="matrix(0.13333333,0,0,-0.13333333,0,217.90667)" />
      <path
         id="path55"
         d="m 3958.11,1429.36 v -62.46 h 49.86 c 5.82,-5.81 3.88,-18.39 -2.89,-22.26 h -46.97 v -119.59 c 0,-37.76 17.92,-44.05 27.6,-44.05 7.75,0 18.88,2.41 29.53,8.23 l 5.81,-12.11 -42.61,-21.3 c -7.26,-3.87 -12.09,-4.84 -15.97,-4.84 -36.32,0 -54.23,17.43 -54.23,57.61 v 136.05 h -32.92 l -2.9,6.77 15.49,15.49 h 20.33 v 29.06 l 43.09,37.27 6.78,-3.87"
         style="fill:#4f4c4c;fill-opacity:1;fill-rule:nonzero;stroke:none"
         transform="matrix(0.13333333,0,0,-0.13333333,0,217.90667)" />
      <path
         id="path56"
         d="m 4125.63,1455.02 c 0,-16.95 -14.52,-30.5 -31.47,-30.5 -16.45,0 -30.98,13.55 -30.98,30.5 0,18.39 14.53,31.94 30.98,31.94 16.95,0 31.47,-13.55 31.47,-31.94 z m -4.83,-252.23 c 0,-26.63 2.89,-29.54 33.39,-32.44 v -13.56 h -116.18 v 13.56 c 30.98,2.9 32.92,5.81 32.92,32.44 v 107.95 c 0,29.54 -0.97,30.5 -30.98,33.41 v 11.14 c 23.71,3.87 55.67,10.64 80.85,18.39 v -170.89"
         style="fill:#4f4c4c;fill-opacity:1;fill-rule:nonzero;stroke:none"
         transform="matrix(0.13333333,0,0,-0.13333333,0,217.90667)" />
      <path
         id="path57"
         d="m 4322.2,1256.52 c 0,60.03 -19.36,98.28 -55.67,98.28 -23.73,0 -46.48,-29.53 -46.48,-81.81 0,-61.49 21.78,-104.1 57.13,-104.1 20.82,0 45.02,18.88 45.02,87.63 z m 57.62,9.2 c 0,-76.01 -55.68,-114.74 -107.48,-114.74 -72.63,0 -109.9,53.74 -109.9,106.51 0,77.47 60.52,115.22 110.86,115.22 63.91,0 106.52,-49.38 106.52,-106.99"
         style="fill:#4f4c4c;fill-opacity:1;fill-rule:nonzero;stroke:none"
         transform="matrix(0.13333333,0,0,-0.13333333,0,217.90667)" />
      <path
         id="path58"
         d="m 4479.58,1339.31 c 9.68,5.8 19.35,12.1 28.07,17.91 15.49,10.17 27.6,15.49 42.61,15.49 39.21,0 62.44,-27.1 62.44,-63.9 v -106.99 c 0,-26.63 1.94,-28.57 29.06,-31.47 v -13.56 h -108.45 v 13.56 c 27.59,2.9 29.53,4.84 29.53,31.47 v 93.43 c 0,29.05 -14.03,45.03 -39.21,45.03 -14.52,0 -30.5,-8.23 -44.05,-19.85 v -118.61 c 0,-26.63 2.89,-28.57 27.1,-31.47 v -13.56 h -111.35 v 13.56 c 31.46,2.9 34.37,4.84 34.37,31.47 v 108.92 c 0,29.54 -0.97,30.5 -30.98,33.41 v 11.14 c 23.72,3.87 55.68,10.64 80.86,18.39 v -34.37"
         style="fill:#4f4c4c;fill-opacity:1;fill-rule:nonzero;stroke:none"
         transform="matrix(0.13333333,0,0,-0.13333333,0,217.90667)" />
      <path
         id="path59"
         d="m 4776.85,1275.89 c -10.17,-4.84 -29.53,-14.53 -38.24,-19.37 -15.98,-8.71 -23.24,-18.88 -23.24,-36.31 0,-25.17 16.45,-36.8 29.04,-36.8 8.72,0 21.31,5.82 32.44,15.5 z m 85.2,-98.77 -49.86,-26.14 c -22.26,0.97 -31.96,18.4 -34.37,30.5 -20.33,-12.1 -46.48,-30.5 -56.16,-30.5 -36.31,0 -59.07,30.5 -59.07,58.58 0,23.73 11.14,40.18 36.32,50.84 23.72,9.68 62.44,23.71 77.94,33.4 v 13.08 c 0,28.55 -12.59,41.63 -34.86,41.63 -7.74,0 -14.52,-3.87 -18.88,-8.23 -7.74,-6.29 -12.59,-17.43 -16.46,-35.83 -1.45,-6.78 -7.74,-10.65 -15.49,-10.65 -10.66,0 -24.69,9.69 -24.69,21.31 0,6.77 4.84,14.52 15,22.27 15.02,10.64 45.03,28.55 80.85,35.33 16.94,0 31.96,-4.35 41.64,-11.62 18.39,-14.04 20.33,-30.01 20.33,-46.95 v -103.61 c 0,-19.36 6.79,-27.12 13.56,-27.12 5.81,0 13.08,2.91 19.37,5.82 l 4.83,-12.11"
         style="fill:#4f4c4c;fill-opacity:1;fill-rule:nonzero;stroke:none"
         transform="matrix(0.13333333,0,0,-0.13333333,0,217.90667)" />
      <path
         id="path60"
         d="m 4953.1,1202.79 c 0,-26.63 1.93,-29.54 33.4,-32.44 v -13.56 h -116.19 v 13.56 c 30.01,2.9 32.92,5.81 32.92,32.44 v 237.23 c 0,28.55 -0.97,28.55 -32.44,31.46 v 12.58 c 20.82,2.9 56.65,10.66 82.31,16.46 v -297.73"
         style="fill:#4f4c4c;fill-opacity:1;fill-rule:nonzero;stroke:none"
         transform="matrix(0.13333333,0,0,-0.13333333,0,217.90667)" />
      <path
         id="path61"
         d="m 5424.68,1168.89 c 4.83,0 11.13,1.93 15,3.4 20.33,6.77 53.26,63.9 52.29,126.84 0,37.27 -14.05,55.67 -38.25,55.67 -4.84,0 -11.62,-1.93 -15.98,-3.87 -15,-6.29 -51.32,-45.03 -51.32,-116.68 0,-36.31 11.14,-65.36 38.26,-65.36 z m 106.5,136.53 c 0,-43.09 -18.88,-92.96 -50.83,-122.01 -20.34,-18.39 -50.84,-32.43 -72.14,-32.43 -45.02,0 -61,37.77 -61,71.66 0,67.77 36.32,112.79 69.71,132.65 19.85,11.61 39.71,17.42 52.29,17.42 40.67,0 61.97,-27.1 61.97,-67.29"
         style="fill:#4f4c4c;fill-opacity:1;fill-rule:nonzero;stroke:none"
         transform="matrix(0.13333333,0,0,-0.13333333,0,217.90667)" />
      <path
         id="path62"
         d="m 5765.52,1372.71 h 4.84 l -36.79,-167.51 c -3.39,-15 -4.85,-20.32 -0.48,-20.32 4.36,0 22.75,11.12 36.3,21.78 l 5.82,-9.69 c -24.21,-24.2 -64.88,-45.99 -71.17,-45.99 -10.65,0 -13.56,12.11 -7.74,37.77 l 13.54,61.96 h -1.45 c -22.76,-30.5 -49.38,-63.42 -79.4,-83.27 -11.62,-7.74 -27.1,-16.46 -39.69,-16.46 -5.81,0 -24.7,6.78 -13.08,58.1 l 22.76,101.18 c 4.36,18.4 6.29,27.12 1.94,27.12 -5.32,0 -24.21,-12.11 -36.32,-24.21 l -5.32,9.68 c 26.62,27.11 60.52,49.86 71.17,49.86 13.07,0 13.56,-12.1 9.2,-30.98 l -25.66,-115.71 c -6.3,-29.05 -7.75,-44.54 4.84,-44.54 25.18,0 86.66,79.4 97.8,105.06 3.87,11.13 12.58,46.48 16.94,73.1 l 31.95,13.07"
         style="fill:#4f4c4c;fill-opacity:1;fill-rule:nonzero;stroke:none"
         transform="matrix(0.13333333,0,0,-0.13333333,0,217.90667)" />
      <path
         id="path63"
         d="m 5879.8,1329.14 -6.29,-29.53 h 0.97 c 23.73,44.06 54.23,73.1 66.81,73.1 10.65,0 18.88,-5.32 22.76,-12.1 2.9,-4.84 2.9,-11.62 0,-16.94 -2.91,-5.81 -7.26,-11.14 -12.11,-14.53 -4.84,-2.91 -9.68,-3.39 -13.55,0 -4.84,3.88 -11.13,5.82 -15.98,5.82 -4.85,0 -12.59,-2.91 -25.67,-20.35 -12.57,-16.94 -20.8,-34.37 -27.1,-52.76 -10.17,-47.45 -17.43,-79.4 -18.88,-97.8 l -39.22,-13.07 c 6.29,25.18 11.62,50.84 16.96,76.49 l 15.97,76.02 c 5.32,25.17 6.29,33.89 2.42,33.89 -5.33,0 -25.66,-13.56 -36.8,-24.21 l -5.32,9.68 c 25.65,27.11 57.61,49.86 69.71,49.86 11.14,0 10.65,-16.94 5.32,-43.57"
         style="fill:#4f4c4c;fill-opacity:1;fill-rule:nonzero;stroke:none"
         transform="matrix(0.13333333,0,0,-0.13333333,0,217.90667)" />
      <path
         id="path64"
         d="m 6138.36,1202.79 c 0,-26.63 1.93,-29.54 33.4,-32.44 v -13.56 h -116.19 v 13.56 c 30.02,2.9 32.93,5.81 32.93,32.44 v 237.23 c 0,28.55 -0.97,28.55 -32.44,31.46 v 12.58 c 20.82,2.9 56.64,10.66 82.3,16.46 v -297.73"
         style="fill:#4f4c4c;fill-opacity:1;fill-rule:nonzero;stroke:none"
         transform="matrix(0.13333333,0,0,-0.13333333,0,217.90667)" />
      <path
         id="path65"
         d="m 6306.36,1275.89 c -10.17,-4.84 -29.53,-14.53 -38.25,-19.37 -15.97,-8.71 -23.24,-18.88 -23.24,-36.31 0,-25.17 16.47,-36.8 29.06,-36.8 8.71,0 21.29,5.82 32.43,15.5 z m 85.21,-98.77 -49.87,-26.14 c -22.27,0.97 -31.95,18.4 -34.37,30.5 -20.34,-12.1 -46.48,-30.5 -56.16,-30.5 -36.31,0 -59.06,30.5 -59.06,58.58 0,23.73 11.12,40.18 36.3,50.84 23.73,9.68 62.46,23.71 77.95,33.4 v 13.08 c 0,28.55 -12.58,41.63 -34.86,41.63 -7.75,0 -14.52,-3.87 -18.87,-8.23 -7.76,-6.29 -12.59,-17.43 -16.47,-35.83 -1.46,-6.78 -7.75,-10.65 -15.49,-10.65 -10.65,0 -24.69,9.69 -24.69,21.31 0,6.77 4.84,14.52 15.01,22.27 15,10.64 45.02,28.55 80.85,35.33 16.94,0 31.94,-4.35 41.62,-11.62 18.41,-14.04 20.35,-30.01 20.35,-46.95 v -103.61 c 0,-19.36 6.77,-27.12 13.55,-27.12 5.81,0 13.07,2.91 19.36,5.82 l 4.85,-12.11"
         style="fill:#4f4c4c;fill-opacity:1;fill-rule:nonzero;stroke:none"
         transform="matrix(0.13333333,0,0,-0.13333333,0,217.90667)" />
      <path
         id="path66"
         d="m 5176.77,1184.87 c 5.82,-7.75 16.47,-14.05 31,-14.05 38.24,0 82.29,62.94 82.29,126.37 0,44.05 -22.76,55.19 -49.86,55.19 -10.17,0 -19.85,-0.49 -30.5,-3.88 z m 36.8,181.06 c 16.94,4.84 31.96,6.78 43.58,6.78 50.35,0 73.09,-25.66 73.09,-64.87 0,-29.05 -14.03,-69.24 -42.59,-101.68 -23.73,-26.62 -57.62,-47.44 -89.09,-55.19 -7.26,0 -18.88,0.97 -28.08,4.36 l -8.59,-42.72 c -4.85,-25.66 -3.4,-30.5 13.07,-31.96 l 25.17,-2.42 v -10.65 l -114.73,-5.81 v 11.13 c 31.94,5.33 35.82,8.72 40.67,33.41 17.42,85.21 31.34,149.72 47.8,234.93 -14.52,-3.38 -27.1,-7.74 -40.66,-12.58 l -1.94,11.13 c 16.46,8.71 32.44,13.07 47.44,18.88 l 4.85,20.82 c 10.16,10.65 21.3,20.33 33.39,26.63 l 4.85,-3.39 -8.23,-36.8"
         style="fill:#4f4c4c;fill-opacity:1;fill-rule:nonzero;stroke:none"
         transform="matrix(0.13333333,0,0,-0.13333333,0,217.90667)" />
      <path
         id="path67"
         d="M 0.0195313,853.859 C 19.0117,1273.71 355.566,1612.21 774.625,1634.29 c 10.73,0.56 19.781,-7.94 19.781,-18.69 v 0 c 0,-9.92 -7.742,-18.14 -17.64,-18.64 -390.18,-19.57 -701.5902,-343.14 -701.5902,-738.097 0,-1.925 0.0117,-3.855 0.0273,-5.781 0.1055,-10.394 -8.2617,-18.871 -18.6562,-18.871 h -37.836 c -10.69527,0 -19.175744,8.961 -18.6913687,19.648"
         style="fill:#d34f1f;fill-opacity:1;fill-rule:nonzero;stroke:none"
         transform="matrix(0.13333333,0,0,-0.13333333,0,217.90667)" />
      <path
         id="path68"
         d="M 82.8945,752.133 C 132.09,413.52 411.723,148.582 757.074,122.039 778.148,120.422 794.406,102.84 794.406,81.7109 V 40.5391 c 0,-23.5977 -20.117,-42.32816 -43.64,-40.398475 C 354.902,32.5508 37.8906,347.68 2.49219,742.695 0.375,766.32 19.1563,786.629 42.875,786.629 v 0 c 20.043,0 37.1367,-14.66 40.0195,-34.496"
         style="fill:#c04120;fill-opacity:1;fill-rule:nonzero;stroke:none"
         transform="matrix(0.13333333,0,0,-0.13333333,0,217.90667)" />
      <path
         id="path69"
         d="m 1636.69,853.859 c -18.99,419.851 -355.55,758.351 -774.6,780.431 -10.735,0.56 -19.785,-7.94 -19.785,-18.69 v 0 c 0,-9.92 7.742,-18.14 17.64,-18.64 390.175,-19.57 701.595,-343.14 701.595,-738.097 0,-1.925 -0.01,-3.855 -0.03,-5.781 -0.11,-10.394 8.26,-18.871 18.66,-18.871 H 1618 c 10.7,0 19.18,8.961 18.69,19.648"
         style="fill:#ef6419;fill-opacity:1;fill-rule:nonzero;stroke:none"
         transform="matrix(0.13333333,0,0,-0.13333333,0,217.90667)" />
      <path
         id="path70"
         d="M 1553.82,752.133 C 1504.62,413.52 1224.99,148.582 879.637,122.039 858.566,120.422 842.305,102.84 842.305,81.7109 V 40.5391 c 0,-23.5977 20.117,-42.32816 43.64,-40.398475 C 1281.81,32.5508 1598.82,347.68 1634.22,742.695 c 2.12,23.625 -16.66,43.934 -40.38,43.934 v 0 c -20.05,0 -37.14,-14.66 -40.02,-34.496"
         style="fill:#982e1e;fill-opacity:1;fill-rule:nonzero;stroke:none"
         transform="matrix(0.13333333,0,0,-0.13333333,0,217.90667)" />
      <path
         id="path71"
         d="m 1141.92,868.891 c 20.32,-80.395 -13.64,-125.418 -87.8,-136.496 217.58,-96.524 368.24,104.785 79.92,343.375 -129.04,106.79 -220.485,205.09 -232.755,393.74 -23.484,-105.83 -20.637,-191.19 52.289,-313.86 61.216,-102.97 161.576,-180.9 188.346,-286.759"
         style="fill:#f4a00f;fill-opacity:1;fill-rule:nonzero;stroke:none"
         transform="matrix(0.13333333,0,0,-0.13333333,0,217.90667)" />
      <path
         id="path72"
         d="m 1206.4,548.859 c -11.42,-0.468 -21.21,-6.089 -34.68,-11.589 -17.96,3.121 -40.44,-14.122 -72.63,-37.008 -27.8,-19.762 -71.26,-55.192 -102.977,-60.942 3.285,53.149 -17.086,87.442 -186.98,152.16 C 697.414,634.039 392.926,733.133 613.465,1341.69 146.289,631.141 561.426,491.379 754.977,411.109 805.703,390.07 792.84,361.379 713.777,359.781 563.07,356.738 454.32,446.922 396.949,610.41 431.02,415.332 555.625,270.109 786.5,257.969 c 232.56,-12.239 344.92,160.293 408.45,246.851 14.55,19.84 39.46,24.309 51.85,5.032 2.74,13.828 -10.96,40.23 -40.4,39.007"
         style="fill:#c04120;fill-opacity:1;fill-rule:nonzero;stroke:none"
         transform="matrix(0.13333333,0,0,-0.13333333,0,217.90667)" />
      <path
         id="path73"
         d="m 1082.69,902.176 c -54.45,95.828 -199.479,216.714 -245.159,284.414 -45.742,67.62 -104.66,155.85 -81.785,350.85 -19.992,-51.49 -38.461,-111.88 -51.656,-172.86 -21.703,-100.28 -28.988,-202.2 -5.102,-269.28 25.641,-71.82 63.34,-108.601 130.707,-177.902 57.543,-59.253 9.422,-104.605 -7.863,-112.312 -43.16,-23.504 -100.812,-1.973 -147.844,53.977 -27.8,32.96 -88.57,117.257 -93.336,220.957 -13.011,-123.817 17.993,-258.75 86.391,-331.969 86.48,-92.571 293.262,-213.449 456.277,-168.391 20.9,5.781 46.86,6.981 53.05,-5.101 2.96,27.043 -22.15,43.543 -52.36,37.472 -6.94,8.36 -28.54,10.258 -56.31,19.278 -32.79,10.66 -70.591,23.843 -86.231,42.105 -30.692,35.836 -6.293,87.914 50.621,92.531 63.34,5.133 114.73,23.352 50.6,136.231"
         style="fill:#ef6419;fill-opacity:1;fill-rule:nonzero;stroke:none"
         transform="matrix(0.13333333,0,0,-0.13333333,0,217.90667)" />
    </g>
  </g>
</svg>
